G04 ===== Begin FILE IDENTIFICATION =====*
G04 File Format:  Gerber RS274X*
G04 ===== End FILE IDENTIFICATION =====*
%FSLAX24Y24*%
%MOMM*%
%SFA1.0000B1.0000*%
%OFA0.0B0.0*%
%ADD10C,0.025000*%
%LNcond2*%
%IPPOS*%
%LPD*%
G75*
G36*
G01X-53200Y95205D02*
G01X56955D01*
G01Y71997D01*
G01X-72326D01*
G01X-89666Y54657D01*
G01Y-59213D01*
G03X-60766I14450J0D01*
G01Y43097D01*
G01X58386D01*
G01Y-49218D01*
G01X-14650D01*
G03Y-78118I0J-14450D01*
G01X69946D01*
G01X87286Y-60778D01*
G01Y43213D01*
G01X115781D01*
G01Y-34117D01*
G01X133121Y-51457D01*
G01X245876D01*
G01X263216Y-34117D01*
G01Y-19520D01*
G03X234316I-14450J0D01*
G01Y-22557D01*
G01X144681D01*
G01Y43213D01*
G01X224176D01*
G01Y31560D01*
G03X253076I14450J0D01*
G01Y54773D01*
G01X235736Y72113D01*
G01X178458D01*
G01Y128734D01*
G01X376786D01*
G01X394126Y146074D01*
G01Y190342D01*
G03X365226I-14450J0D01*
G01Y157634D01*
G01X166898D01*
G01X149558Y140294D01*
G01Y72113D01*
G01X131841D01*
G01Y294552D01*
G01X318506D01*
G03Y323452I0J14450D01*
G01X120281D01*
G01X102941Y306112D01*
G01Y72113D01*
G01X85855D01*
G01Y106765D01*
G01X68515Y124105D01*
G01X-53200D01*
G03Y95205I0J-14450D01*
G01Y95205D01*
G37*
M02*

