G04 ===== Begin FILE IDENTIFICATION =====*
G04 File Format:  Gerber RS274X*
G04 ===== End FILE IDENTIFICATION =====*
%FSLAX24Y24*%
%MOMM*%
%SFA1.0000B1.0000*%
%OFA0.0B0.0*%
%ADD14R,2.500000X2.890000*%
%ADD15R,2.890000X2.500000*%
%ADD16R,1.800000X1.300000*%
%ADD17R,0.350000X0.450000*%
%ADD18R,5.200000X2.890000*%
%ADD19R,1.000000X2.890000*%
%ADD20R,1.300000X1.800000*%
%ADD21R,10.400000X2.890000*%
%ADD22R,2.890000X3.900000*%
%ADD23R,2.890000X2.600000*%
%ADD24R,8.400000X0.800000*%
%ADD25R,2.890000X15.540000*%
%ADD26R,2.890000X3.400000*%
%ADD27R,2.890000X5.200000*%
%ADD28R,0.920000X2.890000*%
%ADD29R,16.300000X1.000000*%
%ADD30C,0.025000*%
%LNcond*%
%IPPOS*%
%LPD*%
G75*
G36*
G01X188500Y96300D02*
G01Y125200D01*
G01X217400D01*
G01Y96300D01*
G01X188500D01*
G37*
D14*
X229900Y110750D03*
D15*
X202450Y26950D03*
D16*
Y45950D03*
Y64950D03*
D17*
X248640Y10D03*
X238640D03*
X248640Y9010D03*
X238640D03*
G36*
G01X188000Y-14450D02*
G01Y14450D01*
G01X216900D01*
G01Y-14450D01*
G01X188000D01*
G37*
D18*
X162000Y0D03*
D15*
X202450Y83950D03*
D19*
X221900Y0D03*
D20*
X248900Y110750D03*
X267900D03*
X110500Y0D03*
X129500Y0D03*
D21*
X52000Y0D03*
G36*
G01X226900Y-14450D02*
G01Y14450D01*
G01X236900Y2250D01*
G01Y-2250D01*
G01X226900Y-14450D01*
G37*
D18*
X162500Y110750D03*
G36*
G01X303280Y125250D02*
G01X274380D01*
G01Y96350D01*
G01X303280D01*
G01Y125250D01*
G37*
D22*
X288830Y76850D03*
G36*
G01X265270Y-5446D02*
G01Y23454D01*
G01X250270Y11254D01*
G01Y6754D01*
G01X265270Y-5446D01*
G37*
D23*
X288850Y138200D03*
D16*
Y157700D03*
Y176700D03*
G36*
G01X303300Y235200D02*
G01X274400D01*
G01X303300Y264100D01*
G01Y235200D01*
G37*
D16*
X-75350Y-20950D03*
Y-39950D03*
D20*
X130000Y110750D03*
X111000D03*
G36*
G01X-99800Y5000D02*
G01Y-5000D01*
G01X-89800Y-14450D01*
G01Y14450D01*
G01X-99800Y5000D01*
G37*
D24*
X62590Y110750D03*
G36*
G01X20590Y96300D02*
G01Y125200D01*
G01X-8310D01*
G01Y96300D01*
G01X20590D01*
G37*
D20*
X-14810Y110750D03*
X-33810D03*
D25*
X6140Y202900D03*
D20*
X-54400Y0D03*
X-35400Y0D03*
G36*
G01X-28900Y14450D02*
G01Y-14450D01*
G01X0D01*
G01Y14450D01*
G01X-28900D01*
G37*
D26*
X288830Y40350D03*
D27*
X288850Y209200D03*
G36*
G01X274380Y23350D02*
G01Y-5550D01*
G01X303280Y23350D01*
G01X274380D01*
G37*
D28*
X269780Y8900D03*
D29*
X-181300Y0D03*
G36*
G01X303300Y235200D02*
G01Y264100D01*
G01X332200D01*
G01Y235200D01*
G01X303300D01*
G37*
D29*
X484600Y249650D03*
G36*
G01X393100Y264100D02*
G01Y235200D01*
G01X403100Y244650D01*
G01Y254650D01*
G01X393100Y264100D01*
G37*
D20*
X338700Y249650D03*
X357700D03*
D16*
X317750Y270600D03*
Y289600D03*
X378650Y228700D03*
Y209700D03*
X-14450Y-20950D03*
Y-39950D03*
G36*
G01X364200Y264100D02*
G01Y235200D01*
G01X393100D01*
G01Y264100D01*
G01X364200D01*
G37*
G36*
G01X-89800Y14450D02*
G01Y-14450D01*
G01X-60900D01*
G01Y14450D01*
G01X-89800D01*
G37*
G36*
G01X-59597Y110515D02*
G01X-59596Y110401D01*
G01X-59593Y110287D01*
G01X-59587Y110174D01*
G01X-59580Y110060D01*
G01X-59571Y109947D01*
G01X-59560Y109834D01*
G01X-59547Y109721D01*
G01X-59531Y109608D01*
G01X-59514Y109496D01*
G01X-59495Y109384D01*
G01X-59474Y109272D01*
G01X-59451Y109161D01*
G01X-59426Y109050D01*
G01X-59399Y108939D01*
G01X-59370Y108829D01*
G01X-59340Y108720D01*
G01X-59307Y108611D01*
G01X-59272Y108502D01*
G01X-59236Y108395D01*
G01X-59198Y108288D01*
G01X-59157Y108181D01*
G01X-59115Y108076D01*
G01X-59071Y107971D01*
G01X-59026Y107867D01*
G01X-58978Y107763D01*
G01X-58929Y107661D01*
G01X-58878Y107559D01*
G01X-58825Y107459D01*
G01X-58770Y107359D01*
G01X-58714Y107260D01*
G01X-58656Y107162D01*
G01X-58596Y107066D01*
G01X-58535Y106970D01*
G01X-58471Y106875D01*
G01X-58407Y106782D01*
G01X-58340Y106690D01*
G01X-58272Y106599D01*
G01X-58203Y106509D01*
G01X-58131Y106420D01*
G01X-58059Y106332D01*
G01X-57984Y106246D01*
G01X-57909Y106162D01*
G01X-57832Y106078D01*
G01X-57753Y105996D01*
G01X-57673Y105915D01*
G01X-57591Y105836D01*
G01X-57509Y105758D01*
G01X-57424Y105681D01*
G01X-57339Y105606D01*
G01X-57252Y105533D01*
G01X-57164Y105461D01*
G01X-57075Y105391D01*
G01X-56984Y105322D01*
G01X-56892Y105255D01*
G01X-56800Y105189D01*
G01X-56705Y105125D01*
G01X-56610Y105063D01*
G01X-56514Y105002D01*
G01X-56417Y104943D01*
G01X-56319Y104886D01*
G01X-56219Y104831D01*
G01X-56119Y104777D01*
G01X-56018Y104725D01*
G01X-55916Y104675D01*
G01X-55813Y104626D01*
G01X-55709Y104580D01*
G01X-55605Y104535D01*
G01X-55500Y104492D01*
G01X-55394Y104451D01*
G01X-55287Y104412D01*
G01X-55179Y104374D01*
G01X-55071Y104339D01*
G01X-54963Y104305D01*
G01X-54854Y104274D01*
G01X-54744Y104244D01*
G01X-54634Y104216D01*
G01X-54523Y104190D01*
G01X-54412Y104166D01*
G01X-54300Y104144D01*
G01X-54188Y104124D01*
G01X-54076Y104106D01*
G01X-53963Y104090D01*
G01X-53851Y104076D01*
G01X-53738Y104063D01*
G01X-53624Y104053D01*
G01X-53511Y104045D01*
G01X-53397Y104039D01*
G01X-53284Y104034D01*
G01X-53170Y104032D01*
G01X-53056D01*
G01X-52943Y104034D01*
G01X-52829Y104037D01*
G01X-52715Y104043D01*
G01X-52602Y104051D01*
G01X-52489Y104060D01*
G01X-52376Y104072D01*
G01X-52263Y104086D01*
G01X-52150Y104101D01*
G01X-52038Y104119D01*
G01X-51926Y104138D01*
G01X-51814Y104160D01*
G01X-51703Y104183D01*
G01X-51592Y104208D01*
G01X-51481Y104236D01*
G01X-51372Y104265D01*
G01X-51262Y104296D01*
G01X-51153Y104329D01*
G01X-51045Y104364D01*
G01X-50938Y104401D01*
G01X-50831Y104440D01*
G01X-50724Y104480D01*
G01X-50619Y104523D01*
G01X-50514Y104567D01*
G01X-50410Y104613D01*
G01X-50307Y104661D01*
G01X-50205Y104711D01*
G01X-50103Y104762D01*
G01X-50003Y104815D01*
G01X-49903Y104870D01*
G01X-49805Y104927D01*
G01X-49707Y104986D01*
G01X-49611Y105046D01*
G01X-49515Y105107D01*
G01X-49421Y105171D01*
G01X-49328Y105236D01*
G01X-49236Y105303D01*
G01X-49145Y105371D01*
G01X-49055Y105441D01*
G01X-48967Y105513D01*
G01X-48880Y105586D01*
G01X-48794Y105660D01*
G01X-48709Y105736D01*
G01X-48626Y105814D01*
G01X-48544Y105893D01*
G01X-48464Y105973D01*
G01X-48385Y106055D01*
G01X-48307Y106138D01*
G01X-48231Y106222D01*
G01X-48156Y106308D01*
G01X-48083Y106395D01*
G01X-48012Y106483D01*
G01X-47942Y106573D01*
G01X-47873Y106664D01*
G01X-47806Y106756D01*
G01X-47741Y106849D01*
G01X-47677Y106943D01*
G01X-47615Y107039D01*
G01X-47555Y107135D01*
G01X-47497Y107232D01*
G01X-47440Y107331D01*
G01X-47385Y107430D01*
G01X-47331Y107531D01*
G01X-47280Y107632D01*
G01X-47230Y107734D01*
G01X-47182Y107837D01*
G01X-47135Y107941D01*
G01X-47091Y108046D01*
G01X-47048Y108151D01*
G01X-47008Y108258D01*
G01X-46969Y108364D01*
G01X-46932Y108472D01*
G01X-46897Y108580D01*
G01X-46864Y108689D01*
G01X-46832Y108798D01*
G01X-46803Y108908D01*
G01X-40310D01*
G01Y112408D01*
G01X-46874D01*
G01X-46908Y112517D01*
G01X-46943Y112625D01*
G01X-46981Y112732D01*
G01X-47020Y112839D01*
G01X-47062Y112944D01*
G01X-47105Y113050D01*
G01X-47150Y113154D01*
G01X-47197Y113258D01*
G01X-47245Y113361D01*
G01X-47296Y113463D01*
G01X-47348Y113564D01*
G01X-47402Y113664D01*
G01X-47457Y113763D01*
G01X-47515Y113861D01*
G01X-47574Y113958D01*
G01X-47634Y114054D01*
G01X-47697Y114149D01*
G01X-47761Y114243D01*
G01X-47827Y114336D01*
G01X-47894Y114428D01*
G01X-47963Y114518D01*
G01X-48034Y114607D01*
G01X-48106Y114695D01*
G01X-48179Y114782D01*
G01X-48254Y114867D01*
G01X-48331Y114951D01*
G01X-48409Y115034D01*
G01X-48488Y115115D01*
G01X-48569Y115195D01*
G01X-48652Y115274D01*
G01X-48735Y115351D01*
G01X-48820Y115426D01*
G01X-48906Y115500D01*
G01X-48994Y115573D01*
G01X-49083Y115644D01*
G01X-49173Y115713D01*
G01X-49264Y115781D01*
G01X-49356Y115847D01*
G01X-49450Y115912D01*
G01X-49545Y115975D01*
G01X-49640Y116036D01*
G01X-49737Y116096D01*
G01X-49835Y116154D01*
G01X-49934Y116210D01*
G01X-50034Y116265D01*
G01X-50134Y116317D01*
G01X-50236Y116368D01*
G01X-50339Y116417D01*
G01X-50442Y116465D01*
G01X-50546Y116510D01*
G01X-50651Y116554D01*
G01X-50757Y116596D01*
G01X-50863Y116636D01*
G01X-50970Y116674D01*
G01X-51078Y116710D01*
G01X-51187Y116745D01*
G01X-51296Y116777D01*
G01X-51405Y116808D01*
G01X-51515Y116836D01*
G01X-51626Y116863D01*
G01X-51737Y116888D01*
G01X-51848Y116911D01*
G01X-51960Y116932D01*
G01X-52072Y116951D01*
G01X-52184Y116967D01*
G01X-52297Y116982D01*
G01X-52410Y116995D01*
G01X-52523Y117006D01*
G01X-52637Y117016D01*
G01X-52750Y117023D01*
G01X-52864Y117028D01*
G01X-52977Y117031D01*
G01X-53091Y117032D01*
G01X-53097D01*
G01Y115032D01*
G01X-53018Y115031D01*
G01X-52940Y115029D01*
G01X-52861Y115026D01*
G01X-52783Y115021D01*
G01X-52705Y115015D01*
G01X-52627Y115007D01*
G01X-52549Y114998D01*
G01X-52471Y114988D01*
G01X-52393Y114977D01*
G01X-52316Y114964D01*
G01X-52238Y114949D01*
G01X-52161Y114934D01*
G01X-52085Y114917D01*
G01X-52008Y114898D01*
G01X-51932Y114879D01*
G01X-51857Y114858D01*
G01X-51781Y114835D01*
G01X-51706Y114812D01*
G01X-51632Y114787D01*
G01X-51558Y114761D01*
G01X-51484Y114733D01*
G01X-51411Y114704D01*
G01X-51339Y114674D01*
G01X-51267Y114643D01*
G01X-51195Y114610D01*
G01X-51124Y114577D01*
G01X-51054Y114542D01*
G01X-50984Y114505D01*
G01X-50915Y114468D01*
G01X-50847Y114429D01*
G01X-50779Y114389D01*
G01X-50712Y114348D01*
G01X-50646Y114306D01*
G01X-50581Y114263D01*
G01X-50516Y114218D01*
G01X-50452Y114173D01*
G01X-50389Y114126D01*
G01X-50327Y114078D01*
G01X-50265Y114029D01*
G01X-50204Y113979D01*
G01X-50145Y113928D01*
G01X-50086Y113876D01*
G01X-50028Y113823D01*
G01X-49971Y113769D01*
G01X-49915Y113714D01*
G01X-49860Y113658D01*
G01X-49806Y113601D01*
G01X-49753Y113543D01*
G01X-49701Y113484D01*
G01X-49650Y113425D01*
G01X-49600Y113364D01*
G01X-49551Y113302D01*
G01X-49503Y113240D01*
G01X-49456Y113177D01*
G01X-49411Y113113D01*
G01X-49366Y113048D01*
G01X-49323Y112983D01*
G01X-49281Y112917D01*
G01X-49240Y112850D01*
G01X-49200Y112782D01*
G01X-49161Y112714D01*
G01X-49124Y112645D01*
G01X-49087Y112575D01*
G01X-49052Y112505D01*
G01X-49019Y112434D01*
G01X-48986Y112362D01*
G01X-48955Y112290D01*
G01X-48925Y112218D01*
G01X-48896Y112145D01*
G01X-48868Y112071D01*
G01X-48842Y111997D01*
G01X-48817Y111923D01*
G01X-48794Y111848D01*
G01X-48771Y111772D01*
G01X-48750Y111697D01*
G01X-48731Y111621D01*
G01X-48712Y111544D01*
G01X-48695Y111468D01*
G01X-48680Y111391D01*
G01X-48665Y111313D01*
G01X-48652Y111236D01*
G01X-48641Y111158D01*
G01X-48631Y111080D01*
G01X-48622Y111002D01*
G01X-48614Y110924D01*
G01X-48608Y110846D01*
G01X-48603Y110768D01*
G01X-48600Y110689D01*
G01X-48598Y110611D01*
G01X-48597Y110532D01*
G01X-48598Y110453D01*
G01X-48600Y110375D01*
G01X-48603Y110296D01*
G01X-48608Y110218D01*
G01X-48614Y110140D01*
G01X-48622Y110062D01*
G01X-48631Y109984D01*
G01X-48641Y109906D01*
G01X-48652Y109828D01*
G01X-48665Y109751D01*
G01X-48680Y109673D01*
G01X-48695Y109596D01*
G01X-48712Y109520D01*
G01X-48731Y109443D01*
G01X-48750Y109367D01*
G01X-48771Y109292D01*
G01X-48794Y109216D01*
G01X-48817Y109141D01*
G01X-48842Y109067D01*
G01X-48868Y108993D01*
G01X-48896Y108919D01*
G01X-48925Y108846D01*
G01X-48955Y108774D01*
G01X-48986Y108702D01*
G01X-49019Y108630D01*
G01X-49052Y108559D01*
G01X-49087Y108489D01*
G01X-49124Y108419D01*
G01X-49161Y108350D01*
G01X-49200Y108282D01*
G01X-49240Y108214D01*
G01X-49281Y108147D01*
G01X-49323Y108081D01*
G01X-49366Y108016D01*
G01X-49411Y107951D01*
G01X-49456Y107887D01*
G01X-49503Y107824D01*
G01X-49551Y107762D01*
G01X-49600Y107700D01*
G01X-49650Y107639D01*
G01X-49701Y107580D01*
G01X-49753Y107521D01*
G01X-49806Y107463D01*
G01X-49860Y107406D01*
G01X-49915Y107350D01*
G01X-49971Y107295D01*
G01X-50028Y107241D01*
G01X-50086Y107188D01*
G01X-50145Y107136D01*
G01X-50204Y107085D01*
G01X-50265Y107035D01*
G01X-50327Y106986D01*
G01X-50389Y106938D01*
G01X-50452Y106891D01*
G01X-50516Y106846D01*
G01X-50581Y106801D01*
G01X-50646Y106758D01*
G01X-50712Y106716D01*
G01X-50779Y106675D01*
G01X-50847Y106635D01*
G01X-50915Y106596D01*
G01X-50984Y106559D01*
G01X-51054Y106522D01*
G01X-51124Y106487D01*
G01X-51195Y106454D01*
G01X-51267Y106421D01*
G01X-51339Y106390D01*
G01X-51411Y106360D01*
G01X-51484Y106331D01*
G01X-51558Y106303D01*
G01X-51632Y106277D01*
G01X-51706Y106252D01*
G01X-51781Y106229D01*
G01X-51857Y106206D01*
G01X-51932Y106185D01*
G01X-52008Y106166D01*
G01X-52085Y106147D01*
G01X-52161Y106130D01*
G01X-52238Y106115D01*
G01X-52316Y106100D01*
G01X-52393Y106087D01*
G01X-52471Y106076D01*
G01X-52549Y106066D01*
G01X-52627Y106057D01*
G01X-52705Y106049D01*
G01X-52783Y106043D01*
G01X-52861Y106038D01*
G01X-52940Y106035D01*
G01X-53018Y106033D01*
G01X-53097Y106032D01*
G01X-53176Y106033D01*
G01X-53254Y106035D01*
G01X-53333Y106038D01*
G01X-53411Y106043D01*
G01X-53489Y106049D01*
G01X-53567Y106057D01*
G01X-53645Y106066D01*
G01X-53723Y106076D01*
G01X-53801Y106087D01*
G01X-53878Y106100D01*
G01X-53956Y106115D01*
G01X-54033Y106130D01*
G01X-54109Y106147D01*
G01X-54186Y106166D01*
G01X-54262Y106185D01*
G01X-54337Y106206D01*
G01X-54413Y106229D01*
G01X-54488Y106252D01*
G01X-54562Y106277D01*
G01X-54636Y106303D01*
G01X-54710Y106331D01*
G01X-54783Y106360D01*
G01X-54855Y106390D01*
G01X-54927Y106421D01*
G01X-54999Y106454D01*
G01X-55070Y106487D01*
G01X-55140Y106522D01*
G01X-55210Y106559D01*
G01X-55279Y106596D01*
G01X-55347Y106635D01*
G01X-55415Y106675D01*
G01X-55482Y106716D01*
G01X-55548Y106758D01*
G01X-55613Y106801D01*
G01X-55678Y106846D01*
G01X-55742Y106891D01*
G01X-55805Y106938D01*
G01X-55867Y106986D01*
G01X-55929Y107035D01*
G01X-55990Y107085D01*
G01X-56049Y107136D01*
G01X-56108Y107188D01*
G01X-56166Y107241D01*
G01X-56223Y107295D01*
G01X-56279Y107350D01*
G01X-56334Y107406D01*
G01X-56388Y107463D01*
G01X-56441Y107521D01*
G01X-56493Y107580D01*
G01X-56544Y107639D01*
G01X-56594Y107700D01*
G01X-56643Y107762D01*
G01X-56691Y107824D01*
G01X-56738Y107887D01*
G01X-56783Y107951D01*
G01X-56828Y108016D01*
G01X-56871Y108081D01*
G01X-56913Y108147D01*
G01X-56954Y108214D01*
G01X-56994Y108282D01*
G01X-57033Y108350D01*
G01X-57070Y108419D01*
G01X-57107Y108489D01*
G01X-57142Y108559D01*
G01X-57175Y108630D01*
G01X-57208Y108702D01*
G01X-57239Y108774D01*
G01X-57269Y108846D01*
G01X-57298Y108919D01*
G01X-57326Y108993D01*
G01X-57352Y109067D01*
G01X-57377Y109141D01*
G01X-57400Y109216D01*
G01X-57423Y109292D01*
G01X-57444Y109367D01*
G01X-57463Y109443D01*
G01X-57482Y109520D01*
G01X-57499Y109596D01*
G01X-57514Y109673D01*
G01X-57529Y109751D01*
G01X-57542Y109828D01*
G01X-57553Y109906D01*
G01X-57563Y109984D01*
G01X-57572Y110062D01*
G01X-57580Y110140D01*
G01X-57586Y110218D01*
G01X-57591Y110296D01*
G01X-57594Y110375D01*
G01X-57596Y110453D01*
G01X-57597Y110532D01*
G01X-57596Y110611D01*
G01X-57594Y110689D01*
G01X-57591Y110768D01*
G01X-57586Y110846D01*
G01X-57580Y110924D01*
G01X-57572Y111002D01*
G01X-57563Y111080D01*
G01X-57553Y111158D01*
G01X-57542Y111236D01*
G01X-57529Y111313D01*
G01X-57514Y111391D01*
G01X-57499Y111468D01*
G01X-57482Y111544D01*
G01X-57463Y111621D01*
G01X-57444Y111697D01*
G01X-57423Y111772D01*
G01X-57400Y111848D01*
G01X-57377Y111923D01*
G01X-57352Y111997D01*
G01X-57326Y112071D01*
G01X-57298Y112145D01*
G01X-57269Y112218D01*
G01X-57239Y112290D01*
G01X-57208Y112362D01*
G01X-57175Y112434D01*
G01X-57142Y112505D01*
G01X-57107Y112575D01*
G01X-57070Y112645D01*
G01X-57033Y112714D01*
G01X-56994Y112782D01*
G01X-56954Y112850D01*
G01X-56913Y112917D01*
G01X-56871Y112983D01*
G01X-56828Y113048D01*
G01X-56783Y113113D01*
G01X-56738Y113177D01*
G01X-56691Y113240D01*
G01X-56643Y113302D01*
G01X-56594Y113364D01*
G01X-56544Y113425D01*
G01X-56493Y113484D01*
G01X-56441Y113543D01*
G01X-56388Y113601D01*
G01X-56334Y113658D01*
G01X-56279Y113714D01*
G01X-56223Y113769D01*
G01X-56166Y113823D01*
G01X-56108Y113876D01*
G01X-56049Y113928D01*
G01X-55990Y113979D01*
G01X-55929Y114029D01*
G01X-55867Y114078D01*
G01X-55805Y114126D01*
G01X-55742Y114173D01*
G01X-55678Y114218D01*
G01X-55613Y114263D01*
G01X-55548Y114306D01*
G01X-55482Y114348D01*
G01X-55415Y114389D01*
G01X-55347Y114429D01*
G01X-55279Y114468D01*
G01X-55210Y114505D01*
G01X-55140Y114542D01*
G01X-55070Y114577D01*
G01X-54999Y114610D01*
G01X-54927Y114643D01*
G01X-54855Y114674D01*
G01X-54783Y114704D01*
G01X-54710Y114733D01*
G01X-54636Y114761D01*
G01X-54562Y114787D01*
G01X-54488Y114812D01*
G01X-54413Y114835D01*
G01X-54337Y114858D01*
G01X-54262Y114879D01*
G01X-54186Y114898D01*
G01X-54109Y114917D01*
G01X-54033Y114934D01*
G01X-53956Y114949D01*
G01X-53878Y114964D01*
G01X-53801Y114977D01*
G01X-53723Y114988D01*
G01X-53645Y114998D01*
G01X-53567Y115007D01*
G01X-53489Y115015D01*
G01X-53411Y115021D01*
G01X-53333Y115026D01*
G01X-53254Y115029D01*
G01X-53176Y115031D01*
G01X-53097Y115032D01*
G01Y117032D01*
G01X-53205Y117031D01*
G01X-53318Y117028D01*
G01X-53432Y117023D01*
G01X-53545Y117016D01*
G01X-53659Y117008D01*
G01X-53772Y116997D01*
G01X-53885Y116984D01*
G01X-53998Y116969D01*
G01X-54110Y116952D01*
G01X-54222Y116934D01*
G01X-54334Y116913D01*
G01X-54446Y116891D01*
G01X-54557Y116866D01*
G01X-54667Y116839D01*
G01X-54777Y116811D01*
G01X-54887Y116781D01*
G01X-54996Y116748D01*
G01X-55104Y116714D01*
G01X-55212Y116678D01*
G01X-55319Y116640D01*
G01X-55426Y116600D01*
G01X-55532Y116559D01*
G01X-55637Y116515D01*
G01X-55741Y116470D01*
G01X-55845Y116423D01*
G01X-55947Y116374D01*
G01X-56049Y116323D01*
G01X-56150Y116271D01*
G01X-56250Y116216D01*
G01X-56349Y116160D01*
G01X-56447Y116103D01*
G01X-56544Y116043D01*
G01X-56639Y115982D01*
G01X-56734Y115919D01*
G01X-56828Y115855D01*
G01X-56920Y115789D01*
G01X-57012Y115721D01*
G01X-57102Y115652D01*
G01X-57191Y115581D01*
G01X-57279Y115509D01*
G01X-57365Y115435D01*
G01X-57450Y115359D01*
G01X-57534Y115282D01*
G01X-57616Y115204D01*
G01X-57697Y115124D01*
G01X-57777Y115043D01*
G01X-57855Y114961D01*
G01X-57932Y114877D01*
G01X-58007Y114791D01*
G01X-58081Y114705D01*
G01X-58153Y114617D01*
G01X-58224Y114528D01*
G01X-58293Y114438D01*
G01X-58361Y114346D01*
G01X-58426Y114254D01*
G01X-58491Y114160D01*
G01X-58553Y114065D01*
G01X-58614Y113969D01*
G01X-58674Y113872D01*
G01X-58731Y113774D01*
G01X-58787Y113675D01*
G01X-58841Y113575D01*
G01X-58893Y113474D01*
G01X-58944Y113372D01*
G01X-58993Y113269D01*
G01X-59040Y113166D01*
G01X-59085Y113061D01*
G01X-59128Y112956D01*
G01X-59170Y112850D01*
G01X-59209Y112744D01*
G01X-59247Y112637D01*
G01X-59283Y112529D01*
G01X-59317Y112420D01*
G01X-59349Y112311D01*
G01X-59379Y112201D01*
G01X-59408Y112091D01*
G01X-59434Y111981D01*
G01X-59458Y111870D01*
G01X-59481Y111758D01*
G01X-59501Y111646D01*
G01X-59520Y111534D01*
G01X-59536Y111422D01*
G01X-59551Y111309D01*
G01X-59563Y111196D01*
G01X-59574Y111083D01*
G01X-59583Y110969D01*
G01X-59589Y110856D01*
G01X-59594Y110742D01*
G01X-59597Y110628D01*
G01X-59597Y110515D01*
G37*
D30*
G01X238600Y0D02*
G01X238500D01*
G01Y10D01*
G01X238640D01*
G36*
G01X-12634Y-52891D02*
G01Y-46398D01*
G01X-14258D01*
G01Y-54685D01*
G01X-14179Y-54686D01*
G01X-14101Y-54688D01*
G01X-14022Y-54691D01*
G01X-13944Y-54696D01*
G01X-13866Y-54702D01*
G01X-13788Y-54710D01*
G01X-13710Y-54719D01*
G01X-13632Y-54729D01*
G01X-13554Y-54740D01*
G01X-13477Y-54753D01*
G01X-13399Y-54768D01*
G01X-13322Y-54783D01*
G01X-13246Y-54800D01*
G01X-13169Y-54819D01*
G01X-13093Y-54838D01*
G01X-13018Y-54859D01*
G01X-12942Y-54882D01*
G01X-12867Y-54905D01*
G01X-12793Y-54930D01*
G01X-12719Y-54956D01*
G01X-12645Y-54984D01*
G01X-12572Y-55013D01*
G01X-12500Y-55043D01*
G01X-12428Y-55074D01*
G01X-12356Y-55107D01*
G01X-12285Y-55140D01*
G01X-12215Y-55175D01*
G01X-12145Y-55212D01*
G01X-12076Y-55249D01*
G01X-12008Y-55288D01*
G01X-11940Y-55328D01*
G01X-11873Y-55369D01*
G01X-11807Y-55411D01*
G01X-11742Y-55454D01*
G01X-11677Y-55499D01*
G01X-11613Y-55544D01*
G01X-11550Y-55591D01*
G01X-11488Y-55639D01*
G01X-11426Y-55688D01*
G01X-11365Y-55738D01*
G01X-11306Y-55789D01*
G01X-11247Y-55841D01*
G01X-11189Y-55894D01*
G01X-11132Y-55948D01*
G01X-11076Y-56003D01*
G01X-11021Y-56059D01*
G01X-10967Y-56116D01*
G01X-10914Y-56174D01*
G01X-10862Y-56233D01*
G01X-10811Y-56292D01*
G01X-10761Y-56353D01*
G01X-10712Y-56415D01*
G01X-10664Y-56477D01*
G01X-10617Y-56540D01*
G01X-10572Y-56604D01*
G01X-10527Y-56669D01*
G01X-10484Y-56734D01*
G01X-10442Y-56800D01*
G01X-10401Y-56867D01*
G01X-10361Y-56935D01*
G01X-10322Y-57003D01*
G01X-10285Y-57072D01*
G01X-10248Y-57142D01*
G01X-10213Y-57212D01*
G01X-10180Y-57283D01*
G01X-10147Y-57355D01*
G01X-10116Y-57427D01*
G01X-10086Y-57499D01*
G01X-10057Y-57572D01*
G01X-10029Y-57646D01*
G01X-10003Y-57720D01*
G01X-9978Y-57794D01*
G01X-9955Y-57869D01*
G01X-9932Y-57945D01*
G01X-9911Y-58020D01*
G01X-9892Y-58096D01*
G01X-9873Y-58173D01*
G01X-9856Y-58249D01*
G01X-9841Y-58326D01*
G01X-9826Y-58404D01*
G01X-9813Y-58481D01*
G01X-9802Y-58559D01*
G01X-9792Y-58637D01*
G01X-9783Y-58715D01*
G01X-9775Y-58793D01*
G01X-9769Y-58871D01*
G01X-9764Y-58949D01*
G01X-9761Y-59028D01*
G01X-9759Y-59106D01*
G01X-9758Y-59185D01*
G01X-9759Y-59264D01*
G01X-9761Y-59342D01*
G01X-9764Y-59421D01*
G01X-9769Y-59499D01*
G01X-9775Y-59577D01*
G01X-9783Y-59655D01*
G01X-9792Y-59733D01*
G01X-9802Y-59811D01*
G01X-9813Y-59889D01*
G01X-9826Y-59966D01*
G01X-9841Y-60044D01*
G01X-9856Y-60121D01*
G01X-9873Y-60197D01*
G01X-9892Y-60274D01*
G01X-9911Y-60350D01*
G01X-9932Y-60425D01*
G01X-9955Y-60501D01*
G01X-9978Y-60576D01*
G01X-10003Y-60650D01*
G01X-10029Y-60724D01*
G01X-10057Y-60798D01*
G01X-10086Y-60871D01*
G01X-10116Y-60943D01*
G01X-10147Y-61015D01*
G01X-10180Y-61087D01*
G01X-10213Y-61158D01*
G01X-10248Y-61228D01*
G01X-10285Y-61298D01*
G01X-10322Y-61367D01*
G01X-10361Y-61435D01*
G01X-10401Y-61503D01*
G01X-10442Y-61570D01*
G01X-10484Y-61636D01*
G01X-10527Y-61701D01*
G01X-10572Y-61766D01*
G01X-10617Y-61830D01*
G01X-10664Y-61893D01*
G01X-10712Y-61955D01*
G01X-10761Y-62017D01*
G01X-10811Y-62078D01*
G01X-10862Y-62137D01*
G01X-10914Y-62196D01*
G01X-10967Y-62254D01*
G01X-11021Y-62311D01*
G01X-11076Y-62367D01*
G01X-11132Y-62422D01*
G01X-11189Y-62476D01*
G01X-11247Y-62529D01*
G01X-11306Y-62581D01*
G01X-11365Y-62632D01*
G01X-11426Y-62682D01*
G01X-11488Y-62731D01*
G01X-11550Y-62779D01*
G01X-11613Y-62826D01*
G01X-11677Y-62871D01*
G01X-11742Y-62916D01*
G01X-11807Y-62959D01*
G01X-11873Y-63001D01*
G01X-11940Y-63042D01*
G01X-12008Y-63082D01*
G01X-12076Y-63121D01*
G01X-12145Y-63158D01*
G01X-12215Y-63195D01*
G01X-12285Y-63230D01*
G01X-12356Y-63263D01*
G01X-12428Y-63296D01*
G01X-12500Y-63327D01*
G01X-12572Y-63357D01*
G01X-12645Y-63386D01*
G01X-12719Y-63414D01*
G01X-12793Y-63440D01*
G01X-12867Y-63465D01*
G01X-12942Y-63488D01*
G01X-13018Y-63511D01*
G01X-13093Y-63532D01*
G01X-13169Y-63551D01*
G01X-13246Y-63570D01*
G01X-13322Y-63587D01*
G01X-13399Y-63602D01*
G01X-13477Y-63617D01*
G01X-13554Y-63630D01*
G01X-13632Y-63641D01*
G01X-13710Y-63651D01*
G01X-13788Y-63660D01*
G01X-13866Y-63668D01*
G01X-13944Y-63674D01*
G01X-14022Y-63679D01*
G01X-14101Y-63682D01*
G01X-14179Y-63684D01*
G01X-14258Y-63685D01*
G01X-14337Y-63684D01*
G01X-14415Y-63682D01*
G01X-14494Y-63679D01*
G01X-14572Y-63674D01*
G01X-14650Y-63668D01*
G01X-14728Y-63660D01*
G01X-14806Y-63651D01*
G01X-14884Y-63641D01*
G01X-14962Y-63630D01*
G01X-15039Y-63617D01*
G01X-15117Y-63602D01*
G01X-15194Y-63587D01*
G01X-15270Y-63570D01*
G01X-15347Y-63551D01*
G01X-15423Y-63532D01*
G01X-15498Y-63511D01*
G01X-15574Y-63488D01*
G01X-15649Y-63465D01*
G01X-15723Y-63440D01*
G01X-15797Y-63414D01*
G01X-15871Y-63386D01*
G01X-15944Y-63357D01*
G01X-16016Y-63327D01*
G01X-16088Y-63296D01*
G01X-16160Y-63263D01*
G01X-16231Y-63230D01*
G01X-16301Y-63195D01*
G01X-16371Y-63158D01*
G01X-16440Y-63121D01*
G01X-16508Y-63082D01*
G01X-16576Y-63042D01*
G01X-16643Y-63001D01*
G01X-16709Y-62959D01*
G01X-16774Y-62916D01*
G01X-16839Y-62871D01*
G01X-16903Y-62826D01*
G01X-16966Y-62779D01*
G01X-17028Y-62731D01*
G01X-17090Y-62682D01*
G01X-17151Y-62632D01*
G01X-17210Y-62581D01*
G01X-17269Y-62529D01*
G01X-17327Y-62476D01*
G01X-17384Y-62422D01*
G01X-17440Y-62367D01*
G01X-17495Y-62311D01*
G01X-17549Y-62254D01*
G01X-17602Y-62196D01*
G01X-17654Y-62137D01*
G01X-17705Y-62078D01*
G01X-17755Y-62017D01*
G01X-17804Y-61955D01*
G01X-17852Y-61893D01*
G01X-17899Y-61830D01*
G01X-17944Y-61766D01*
G01X-17989Y-61701D01*
G01X-18032Y-61636D01*
G01X-18074Y-61570D01*
G01X-18115Y-61503D01*
G01X-18155Y-61435D01*
G01X-18194Y-61367D01*
G01X-18231Y-61298D01*
G01X-18268Y-61228D01*
G01X-18303Y-61158D01*
G01X-18336Y-61087D01*
G01X-18369Y-61015D01*
G01X-18400Y-60943D01*
G01X-18430Y-60871D01*
G01X-18459Y-60798D01*
G01X-18487Y-60724D01*
G01X-18513Y-60650D01*
G01X-18538Y-60576D01*
G01X-18561Y-60501D01*
G01X-18584Y-60425D01*
G01X-18605Y-60350D01*
G01X-18624Y-60274D01*
G01X-18643Y-60197D01*
G01X-18660Y-60121D01*
G01X-18675Y-60044D01*
G01X-18690Y-59966D01*
G01X-18703Y-59889D01*
G01X-18714Y-59811D01*
G01X-18724Y-59733D01*
G01X-18733Y-59655D01*
G01X-18741Y-59577D01*
G01X-18747Y-59499D01*
G01X-18752Y-59421D01*
G01X-18755Y-59342D01*
G01X-18757Y-59264D01*
G01X-18758Y-59185D01*
G01X-18757Y-59106D01*
G01X-18755Y-59028D01*
G01X-18752Y-58949D01*
G01X-18747Y-58871D01*
G01X-18741Y-58793D01*
G01X-18733Y-58715D01*
G01X-18724Y-58637D01*
G01X-18714Y-58559D01*
G01X-18703Y-58481D01*
G01X-18690Y-58404D01*
G01X-18675Y-58326D01*
G01X-18660Y-58249D01*
G01X-18643Y-58173D01*
G01X-18624Y-58096D01*
G01X-18605Y-58020D01*
G01X-18584Y-57945D01*
G01X-18561Y-57869D01*
G01X-18538Y-57794D01*
G01X-18513Y-57720D01*
G01X-18487Y-57646D01*
G01X-18459Y-57572D01*
G01X-18430Y-57499D01*
G01X-18400Y-57427D01*
G01X-18369Y-57355D01*
G01X-18336Y-57283D01*
G01X-18303Y-57212D01*
G01X-18268Y-57142D01*
G01X-18231Y-57072D01*
G01X-18194Y-57003D01*
G01X-18155Y-56935D01*
G01X-18115Y-56867D01*
G01X-18074Y-56800D01*
G01X-18032Y-56734D01*
G01X-17989Y-56669D01*
G01X-17944Y-56604D01*
G01X-17899Y-56540D01*
G01X-17852Y-56477D01*
G01X-17804Y-56415D01*
G01X-17755Y-56353D01*
G01X-17705Y-56292D01*
G01X-17654Y-56233D01*
G01X-17602Y-56174D01*
G01X-17549Y-56116D01*
G01X-17495Y-56059D01*
G01X-17440Y-56003D01*
G01X-17384Y-55948D01*
G01X-17327Y-55894D01*
G01X-17269Y-55841D01*
G01X-17210Y-55789D01*
G01X-17151Y-55738D01*
G01X-17090Y-55688D01*
G01X-17028Y-55639D01*
G01X-16966Y-55591D01*
G01X-16903Y-55544D01*
G01X-16839Y-55499D01*
G01X-16774Y-55454D01*
G01X-16709Y-55411D01*
G01X-16643Y-55369D01*
G01X-16576Y-55328D01*
G01X-16508Y-55288D01*
G01X-16440Y-55249D01*
G01X-16371Y-55212D01*
G01X-16301Y-55175D01*
G01X-16231Y-55140D01*
G01X-16160Y-55107D01*
G01X-16088Y-55074D01*
G01X-16016Y-55043D01*
G01X-15944Y-55013D01*
G01X-15871Y-54984D01*
G01X-15797Y-54956D01*
G01X-15723Y-54930D01*
G01X-15649Y-54905D01*
G01X-15574Y-54882D01*
G01X-15498Y-54859D01*
G01X-15423Y-54838D01*
G01X-15347Y-54819D01*
G01X-15270Y-54800D01*
G01X-15194Y-54783D01*
G01X-15117Y-54768D01*
G01X-15039Y-54753D01*
G01X-14962Y-54740D01*
G01X-14884Y-54729D01*
G01X-14806Y-54719D01*
G01X-14728Y-54710D01*
G01X-14650Y-54702D01*
G01X-14572Y-54696D01*
G01X-14494Y-54691D01*
G01X-14415Y-54688D01*
G01X-14337Y-54686D01*
G01X-14258Y-54685D01*
G01Y-46398D01*
G01X-16134D01*
G01Y-52962D01*
G01X-16243Y-52996D01*
G01X-16351Y-53031D01*
G01X-16458Y-53069D01*
G01X-16565Y-53108D01*
G01X-16670Y-53150D01*
G01X-16776Y-53193D01*
G01X-16880Y-53238D01*
G01X-16984Y-53285D01*
G01X-17087Y-53333D01*
G01X-17189Y-53384D01*
G01X-17290Y-53436D01*
G01X-17390Y-53490D01*
G01X-17489Y-53545D01*
G01X-17587Y-53603D01*
G01X-17684Y-53662D01*
G01X-17780Y-53722D01*
G01X-17875Y-53785D01*
G01X-17969Y-53849D01*
G01X-18062Y-53915D01*
G01X-18154Y-53982D01*
G01X-18244Y-54051D01*
G01X-18333Y-54122D01*
G01X-18421Y-54194D01*
G01X-18508Y-54267D01*
G01X-18593Y-54342D01*
G01X-18677Y-54419D01*
G01X-18760Y-54497D01*
G01X-18841Y-54576D01*
G01X-18921Y-54657D01*
G01X-19000Y-54740D01*
G01X-19077Y-54823D01*
G01X-19152Y-54908D01*
G01X-19226Y-54994D01*
G01X-19299Y-55082D01*
G01X-19370Y-55171D01*
G01X-19439Y-55261D01*
G01X-19507Y-55352D01*
G01X-19573Y-55444D01*
G01X-19638Y-55538D01*
G01X-19701Y-55633D01*
G01X-19762Y-55728D01*
G01X-19822Y-55825D01*
G01X-19880Y-55923D01*
G01X-19936Y-56022D01*
G01X-19991Y-56122D01*
G01X-20043Y-56222D01*
G01X-20094Y-56324D01*
G01X-20143Y-56427D01*
G01X-20191Y-56530D01*
G01X-20236Y-56634D01*
G01X-20280Y-56739D01*
G01X-20322Y-56845D01*
G01X-20362Y-56951D01*
G01X-20400Y-57058D01*
G01X-20436Y-57166D01*
G01X-20471Y-57275D01*
G01X-20503Y-57384D01*
G01X-20534Y-57493D01*
G01X-20562Y-57603D01*
G01X-20589Y-57714D01*
G01X-20614Y-57825D01*
G01X-20637Y-57936D01*
G01X-20658Y-58048D01*
G01X-20677Y-58160D01*
G01X-20693Y-58272D01*
G01X-20708Y-58385D01*
G01X-20721Y-58498D01*
G01X-20732Y-58611D01*
G01X-20742Y-58725D01*
G01X-20749Y-58838D01*
G01X-20754Y-58952D01*
G01X-20757Y-59065D01*
G01X-20758Y-59179D01*
G01X-20757Y-59293D01*
G01X-20754Y-59406D01*
G01X-20749Y-59520D01*
G01X-20742Y-59633D01*
G01X-20734Y-59747D01*
G01X-20723Y-59860D01*
G01X-20710Y-59973D01*
G01X-20695Y-60086D01*
G01X-20678Y-60198D01*
G01X-20660Y-60310D01*
G01X-20639Y-60422D01*
G01X-20617Y-60534D01*
G01X-20592Y-60645D01*
G01X-20565Y-60755D01*
G01X-20537Y-60865D01*
G01X-20507Y-60975D01*
G01X-20474Y-61084D01*
G01X-20440Y-61192D01*
G01X-20404Y-61300D01*
G01X-20366Y-61407D01*
G01X-20326Y-61514D01*
G01X-20285Y-61620D01*
G01X-20241Y-61725D01*
G01X-20196Y-61829D01*
G01X-20149Y-61933D01*
G01X-20100Y-62035D01*
G01X-20049Y-62137D01*
G01X-19997Y-62238D01*
G01X-19942Y-62338D01*
G01X-19886Y-62437D01*
G01X-19829Y-62535D01*
G01X-19769Y-62632D01*
G01X-19708Y-62727D01*
G01X-19645Y-62822D01*
G01X-19581Y-62916D01*
G01X-19515Y-63008D01*
G01X-19447Y-63100D01*
G01X-19378Y-63190D01*
G01X-19307Y-63279D01*
G01X-19235Y-63367D01*
G01X-19161Y-63453D01*
G01X-19085Y-63538D01*
G01X-19008Y-63622D01*
G01X-18930Y-63704D01*
G01X-18850Y-63785D01*
G01X-18769Y-63865D01*
G01X-18687Y-63943D01*
G01X-18603Y-64020D01*
G01X-18517Y-64095D01*
G01X-18431Y-64169D01*
G01X-18343Y-64241D01*
G01X-18254Y-64312D01*
G01X-18164Y-64381D01*
G01X-18072Y-64449D01*
G01X-17980Y-64514D01*
G01X-17886Y-64579D01*
G01X-17791Y-64641D01*
G01X-17695Y-64702D01*
G01X-17598Y-64762D01*
G01X-17500Y-64819D01*
G01X-17401Y-64875D01*
G01X-17301Y-64929D01*
G01X-17200Y-64981D01*
G01X-17098Y-65032D01*
G01X-16995Y-65081D01*
G01X-16892Y-65128D01*
G01X-16787Y-65173D01*
G01X-16682Y-65216D01*
G01X-16576Y-65258D01*
G01X-16470Y-65297D01*
G01X-16363Y-65335D01*
G01X-16255Y-65371D01*
G01X-16146Y-65405D01*
G01X-16037Y-65437D01*
G01X-15927Y-65467D01*
G01X-15817Y-65496D01*
G01X-15707Y-65522D01*
G01X-15596Y-65546D01*
G01X-15484Y-65569D01*
G01X-15372Y-65589D01*
G01X-15260Y-65608D01*
G01X-15148Y-65624D01*
G01X-15035Y-65639D01*
G01X-14922Y-65651D01*
G01X-14809Y-65662D01*
G01X-14695Y-65671D01*
G01X-14582Y-65677D01*
G01X-14468Y-65682D01*
G01X-14354Y-65685D01*
G01X-14241D01*
G01X-14127Y-65684D01*
G01X-14013Y-65681D01*
G01X-13900Y-65675D01*
G01X-13786Y-65668D01*
G01X-13673Y-65659D01*
G01X-13560Y-65648D01*
G01X-13447Y-65635D01*
G01X-13334Y-65619D01*
G01X-13222Y-65602D01*
G01X-13110Y-65583D01*
G01X-12998Y-65562D01*
G01X-12887Y-65539D01*
G01X-12776Y-65514D01*
G01X-12665Y-65487D01*
G01X-12555Y-65458D01*
G01X-12446Y-65428D01*
G01X-12337Y-65395D01*
G01X-12228Y-65360D01*
G01X-12121Y-65324D01*
G01X-12014Y-65286D01*
G01X-11907Y-65245D01*
G01X-11802Y-65203D01*
G01X-11697Y-65159D01*
G01X-11593Y-65114D01*
G01X-11489Y-65066D01*
G01X-11387Y-65017D01*
G01X-11285Y-64966D01*
G01X-11185Y-64913D01*
G01X-11085Y-64858D01*
G01X-10986Y-64802D01*
G01X-10888Y-64744D01*
G01X-10792Y-64684D01*
G01X-10696Y-64623D01*
G01X-10601Y-64559D01*
G01X-10508Y-64495D01*
G01X-10416Y-64428D01*
G01X-10325Y-64360D01*
G01X-10235Y-64291D01*
G01X-10146Y-64219D01*
G01X-10058Y-64147D01*
G01X-9972Y-64072D01*
G01X-9888Y-63997D01*
G01X-9804Y-63920D01*
G01X-9722Y-63841D01*
G01X-9641Y-63761D01*
G01X-9562Y-63679D01*
G01X-9484Y-63597D01*
G01X-9407Y-63512D01*
G01X-9332Y-63427D01*
G01X-9259Y-63340D01*
G01X-9187Y-63252D01*
G01X-9117Y-63163D01*
G01X-9048Y-63072D01*
G01X-8981Y-62980D01*
G01X-8915Y-62888D01*
G01X-8851Y-62793D01*
G01X-8789Y-62698D01*
G01X-8728Y-62602D01*
G01X-8669Y-62505D01*
G01X-8612Y-62407D01*
G01X-8557Y-62307D01*
G01X-8503Y-62207D01*
G01X-8451Y-62106D01*
G01X-8401Y-62004D01*
G01X-8352Y-61901D01*
G01X-8306Y-61797D01*
G01X-8261Y-61693D01*
G01X-8218Y-61588D01*
G01X-8177Y-61482D01*
G01X-8138Y-61375D01*
G01X-8100Y-61267D01*
G01X-8065Y-61159D01*
G01X-8031Y-61051D01*
G01X-8000Y-60942D01*
G01X-7970Y-60832D01*
G01X-7942Y-60722D01*
G01X-7916Y-60611D01*
G01X-7892Y-60500D01*
G01X-7870Y-60388D01*
G01X-7850Y-60276D01*
G01X-7832Y-60164D01*
G01X-7816Y-60051D01*
G01X-7802Y-59939D01*
G01X-7789Y-59826D01*
G01X-7779Y-59712D01*
G01X-7771Y-59599D01*
G01X-7765Y-59485D01*
G01X-7760Y-59372D01*
G01X-7758Y-59258D01*
G01Y-59144D01*
G01X-7760Y-59031D01*
G01X-7763Y-58917D01*
G01X-7769Y-58803D01*
G01X-7777Y-58690D01*
G01X-7786Y-58577D01*
G01X-7798Y-58464D01*
G01X-7812Y-58351D01*
G01X-7827Y-58238D01*
G01X-7845Y-58126D01*
G01X-7864Y-58014D01*
G01X-7886Y-57902D01*
G01X-7909Y-57791D01*
G01X-7934Y-57680D01*
G01X-7962Y-57569D01*
G01X-7991Y-57460D01*
G01X-8022Y-57350D01*
G01X-8055Y-57241D01*
G01X-8090Y-57133D01*
G01X-8127Y-57026D01*
G01X-8166Y-56919D01*
G01X-8206Y-56812D01*
G01X-8249Y-56707D01*
G01X-8293Y-56602D01*
G01X-8339Y-56498D01*
G01X-8387Y-56395D01*
G01X-8437Y-56293D01*
G01X-8488Y-56191D01*
G01X-8541Y-56091D01*
G01X-8596Y-55991D01*
G01X-8653Y-55893D01*
G01X-8712Y-55795D01*
G01X-8772Y-55699D01*
G01X-8833Y-55603D01*
G01X-8897Y-55509D01*
G01X-8962Y-55416D01*
G01X-9029Y-55324D01*
G01X-9097Y-55233D01*
G01X-9167Y-55143D01*
G01X-9239Y-55055D01*
G01X-9312Y-54968D01*
G01X-9386Y-54882D01*
G01X-9462Y-54797D01*
G01X-9540Y-54714D01*
G01X-9619Y-54632D01*
G01X-9699Y-54552D01*
G01X-9781Y-54473D01*
G01X-9864Y-54395D01*
G01X-9948Y-54319D01*
G01X-10034Y-54244D01*
G01X-10121Y-54171D01*
G01X-10209Y-54100D01*
G01X-10299Y-54030D01*
G01X-10390Y-53961D01*
G01X-10482Y-53894D01*
G01X-10575Y-53829D01*
G01X-10669Y-53765D01*
G01X-10765Y-53703D01*
G01X-10861Y-53643D01*
G01X-10958Y-53585D01*
G01X-11057Y-53528D01*
G01X-11156Y-53473D01*
G01X-11257Y-53419D01*
G01X-11358Y-53368D01*
G01X-11460Y-53318D01*
G01X-11563Y-53270D01*
G01X-11667Y-53223D01*
G01X-11772Y-53179D01*
G01X-11877Y-53136D01*
G01X-11984Y-53096D01*
G01X-12090Y-53057D01*
G01X-12198Y-53020D01*
G01X-12306Y-52985D01*
G01X-12415Y-52952D01*
G01X-12524Y-52920D01*
G01X-12634Y-52891D01*
G37*
G36*
G01X-73592Y-52919D02*
G01Y-46426D01*
G01X-75216D01*
G01Y-54713D01*
G01X-75137Y-54714D01*
G01X-75059Y-54716D01*
G01X-74980Y-54719D01*
G01X-74902Y-54724D01*
G01X-74824Y-54730D01*
G01X-74746Y-54738D01*
G01X-74668Y-54747D01*
G01X-74590Y-54757D01*
G01X-74512Y-54768D01*
G01X-74435Y-54781D01*
G01X-74357Y-54796D01*
G01X-74280Y-54811D01*
G01X-74204Y-54828D01*
G01X-74127Y-54847D01*
G01X-74051Y-54866D01*
G01X-73976Y-54887D01*
G01X-73900Y-54910D01*
G01X-73825Y-54933D01*
G01X-73751Y-54958D01*
G01X-73677Y-54984D01*
G01X-73603Y-55012D01*
G01X-73530Y-55041D01*
G01X-73458Y-55071D01*
G01X-73386Y-55102D01*
G01X-73314Y-55135D01*
G01X-73243Y-55168D01*
G01X-73173Y-55203D01*
G01X-73103Y-55240D01*
G01X-73034Y-55277D01*
G01X-72966Y-55316D01*
G01X-72898Y-55356D01*
G01X-72831Y-55397D01*
G01X-72765Y-55439D01*
G01X-72700Y-55482D01*
G01X-72635Y-55527D01*
G01X-72571Y-55572D01*
G01X-72508Y-55619D01*
G01X-72446Y-55667D01*
G01X-72384Y-55716D01*
G01X-72323Y-55766D01*
G01X-72264Y-55817D01*
G01X-72205Y-55869D01*
G01X-72147Y-55922D01*
G01X-72090Y-55976D01*
G01X-72034Y-56031D01*
G01X-71979Y-56087D01*
G01X-71925Y-56144D01*
G01X-71872Y-56202D01*
G01X-71820Y-56261D01*
G01X-71769Y-56320D01*
G01X-71719Y-56381D01*
G01X-71670Y-56443D01*
G01X-71622Y-56505D01*
G01X-71575Y-56568D01*
G01X-71530Y-56632D01*
G01X-71485Y-56697D01*
G01X-71442Y-56762D01*
G01X-71400Y-56828D01*
G01X-71359Y-56895D01*
G01X-71319Y-56963D01*
G01X-71280Y-57031D01*
G01X-71243Y-57100D01*
G01X-71206Y-57170D01*
G01X-71171Y-57240D01*
G01X-71138Y-57311D01*
G01X-71105Y-57383D01*
G01X-71074Y-57455D01*
G01X-71044Y-57527D01*
G01X-71015Y-57600D01*
G01X-70987Y-57674D01*
G01X-70961Y-57748D01*
G01X-70936Y-57822D01*
G01X-70913Y-57897D01*
G01X-70890Y-57973D01*
G01X-70869Y-58048D01*
G01X-70850Y-58124D01*
G01X-70831Y-58201D01*
G01X-70814Y-58277D01*
G01X-70799Y-58354D01*
G01X-70784Y-58432D01*
G01X-70771Y-58509D01*
G01X-70760Y-58587D01*
G01X-70750Y-58665D01*
G01X-70741Y-58743D01*
G01X-70733Y-58821D01*
G01X-70727Y-58899D01*
G01X-70722Y-58977D01*
G01X-70719Y-59056D01*
G01X-70717Y-59134D01*
G01X-70716Y-59213D01*
G01X-70717Y-59292D01*
G01X-70719Y-59370D01*
G01X-70722Y-59449D01*
G01X-70727Y-59527D01*
G01X-70733Y-59605D01*
G01X-70741Y-59683D01*
G01X-70750Y-59761D01*
G01X-70760Y-59839D01*
G01X-70771Y-59917D01*
G01X-70784Y-59994D01*
G01X-70799Y-60072D01*
G01X-70814Y-60149D01*
G01X-70831Y-60225D01*
G01X-70850Y-60302D01*
G01X-70869Y-60378D01*
G01X-70890Y-60453D01*
G01X-70913Y-60529D01*
G01X-70936Y-60604D01*
G01X-70961Y-60678D01*
G01X-70987Y-60752D01*
G01X-71015Y-60826D01*
G01X-71044Y-60899D01*
G01X-71074Y-60971D01*
G01X-71105Y-61043D01*
G01X-71138Y-61115D01*
G01X-71171Y-61186D01*
G01X-71206Y-61256D01*
G01X-71243Y-61326D01*
G01X-71280Y-61395D01*
G01X-71319Y-61463D01*
G01X-71359Y-61531D01*
G01X-71400Y-61598D01*
G01X-71442Y-61664D01*
G01X-71485Y-61729D01*
G01X-71530Y-61794D01*
G01X-71575Y-61858D01*
G01X-71622Y-61921D01*
G01X-71670Y-61983D01*
G01X-71719Y-62045D01*
G01X-71769Y-62106D01*
G01X-71820Y-62165D01*
G01X-71872Y-62224D01*
G01X-71925Y-62282D01*
G01X-71979Y-62339D01*
G01X-72034Y-62395D01*
G01X-72090Y-62450D01*
G01X-72147Y-62504D01*
G01X-72205Y-62557D01*
G01X-72264Y-62609D01*
G01X-72323Y-62660D01*
G01X-72384Y-62710D01*
G01X-72446Y-62759D01*
G01X-72508Y-62807D01*
G01X-72571Y-62854D01*
G01X-72635Y-62899D01*
G01X-72700Y-62944D01*
G01X-72765Y-62987D01*
G01X-72831Y-63029D01*
G01X-72898Y-63070D01*
G01X-72966Y-63110D01*
G01X-73034Y-63149D01*
G01X-73103Y-63186D01*
G01X-73173Y-63223D01*
G01X-73243Y-63258D01*
G01X-73314Y-63291D01*
G01X-73386Y-63324D01*
G01X-73458Y-63355D01*
G01X-73530Y-63385D01*
G01X-73603Y-63414D01*
G01X-73677Y-63442D01*
G01X-73751Y-63468D01*
G01X-73825Y-63493D01*
G01X-73900Y-63516D01*
G01X-73976Y-63539D01*
G01X-74051Y-63560D01*
G01X-74127Y-63579D01*
G01X-74204Y-63598D01*
G01X-74280Y-63615D01*
G01X-74357Y-63630D01*
G01X-74435Y-63645D01*
G01X-74512Y-63658D01*
G01X-74590Y-63669D01*
G01X-74668Y-63679D01*
G01X-74746Y-63688D01*
G01X-74824Y-63696D01*
G01X-74902Y-63702D01*
G01X-74980Y-63707D01*
G01X-75059Y-63710D01*
G01X-75137Y-63712D01*
G01X-75216Y-63713D01*
G01X-75295Y-63712D01*
G01X-75373Y-63710D01*
G01X-75452Y-63707D01*
G01X-75530Y-63702D01*
G01X-75608Y-63696D01*
G01X-75686Y-63688D01*
G01X-75764Y-63679D01*
G01X-75842Y-63669D01*
G01X-75920Y-63658D01*
G01X-75997Y-63645D01*
G01X-76075Y-63630D01*
G01X-76152Y-63615D01*
G01X-76228Y-63598D01*
G01X-76305Y-63579D01*
G01X-76381Y-63560D01*
G01X-76456Y-63539D01*
G01X-76532Y-63516D01*
G01X-76607Y-63493D01*
G01X-76681Y-63468D01*
G01X-76755Y-63442D01*
G01X-76829Y-63414D01*
G01X-76902Y-63385D01*
G01X-76974Y-63355D01*
G01X-77046Y-63324D01*
G01X-77118Y-63291D01*
G01X-77189Y-63258D01*
G01X-77259Y-63223D01*
G01X-77329Y-63186D01*
G01X-77398Y-63149D01*
G01X-77466Y-63110D01*
G01X-77534Y-63070D01*
G01X-77601Y-63029D01*
G01X-77667Y-62987D01*
G01X-77732Y-62944D01*
G01X-77797Y-62899D01*
G01X-77861Y-62854D01*
G01X-77924Y-62807D01*
G01X-77986Y-62759D01*
G01X-78048Y-62710D01*
G01X-78109Y-62660D01*
G01X-78168Y-62609D01*
G01X-78227Y-62557D01*
G01X-78285Y-62504D01*
G01X-78342Y-62450D01*
G01X-78398Y-62395D01*
G01X-78453Y-62339D01*
G01X-78507Y-62282D01*
G01X-78560Y-62224D01*
G01X-78612Y-62165D01*
G01X-78663Y-62106D01*
G01X-78713Y-62045D01*
G01X-78762Y-61983D01*
G01X-78810Y-61921D01*
G01X-78857Y-61858D01*
G01X-78902Y-61794D01*
G01X-78947Y-61729D01*
G01X-78990Y-61664D01*
G01X-79032Y-61598D01*
G01X-79073Y-61531D01*
G01X-79113Y-61463D01*
G01X-79152Y-61395D01*
G01X-79189Y-61326D01*
G01X-79226Y-61256D01*
G01X-79261Y-61186D01*
G01X-79294Y-61115D01*
G01X-79327Y-61043D01*
G01X-79358Y-60971D01*
G01X-79388Y-60899D01*
G01X-79417Y-60826D01*
G01X-79445Y-60752D01*
G01X-79471Y-60678D01*
G01X-79496Y-60604D01*
G01X-79519Y-60529D01*
G01X-79542Y-60453D01*
G01X-79563Y-60378D01*
G01X-79582Y-60302D01*
G01X-79601Y-60225D01*
G01X-79618Y-60149D01*
G01X-79633Y-60072D01*
G01X-79648Y-59994D01*
G01X-79661Y-59917D01*
G01X-79672Y-59839D01*
G01X-79682Y-59761D01*
G01X-79691Y-59683D01*
G01X-79699Y-59605D01*
G01X-79705Y-59527D01*
G01X-79710Y-59449D01*
G01X-79713Y-59370D01*
G01X-79715Y-59292D01*
G01X-79716Y-59213D01*
G01X-79715Y-59134D01*
G01X-79713Y-59056D01*
G01X-79710Y-58977D01*
G01X-79705Y-58899D01*
G01X-79699Y-58821D01*
G01X-79691Y-58743D01*
G01X-79682Y-58665D01*
G01X-79672Y-58587D01*
G01X-79661Y-58509D01*
G01X-79648Y-58432D01*
G01X-79633Y-58354D01*
G01X-79618Y-58277D01*
G01X-79601Y-58201D01*
G01X-79582Y-58124D01*
G01X-79563Y-58048D01*
G01X-79542Y-57973D01*
G01X-79519Y-57897D01*
G01X-79496Y-57822D01*
G01X-79471Y-57748D01*
G01X-79445Y-57674D01*
G01X-79417Y-57600D01*
G01X-79388Y-57527D01*
G01X-79358Y-57455D01*
G01X-79327Y-57383D01*
G01X-79294Y-57311D01*
G01X-79261Y-57240D01*
G01X-79226Y-57170D01*
G01X-79189Y-57100D01*
G01X-79152Y-57031D01*
G01X-79113Y-56963D01*
G01X-79073Y-56895D01*
G01X-79032Y-56828D01*
G01X-78990Y-56762D01*
G01X-78947Y-56697D01*
G01X-78902Y-56632D01*
G01X-78857Y-56568D01*
G01X-78810Y-56505D01*
G01X-78762Y-56443D01*
G01X-78713Y-56381D01*
G01X-78663Y-56320D01*
G01X-78612Y-56261D01*
G01X-78560Y-56202D01*
G01X-78507Y-56144D01*
G01X-78453Y-56087D01*
G01X-78398Y-56031D01*
G01X-78342Y-55976D01*
G01X-78285Y-55922D01*
G01X-78227Y-55869D01*
G01X-78168Y-55817D01*
G01X-78109Y-55766D01*
G01X-78048Y-55716D01*
G01X-77986Y-55667D01*
G01X-77924Y-55619D01*
G01X-77861Y-55572D01*
G01X-77797Y-55527D01*
G01X-77732Y-55482D01*
G01X-77667Y-55439D01*
G01X-77601Y-55397D01*
G01X-77534Y-55356D01*
G01X-77466Y-55316D01*
G01X-77398Y-55277D01*
G01X-77329Y-55240D01*
G01X-77259Y-55203D01*
G01X-77189Y-55168D01*
G01X-77118Y-55135D01*
G01X-77046Y-55102D01*
G01X-76974Y-55071D01*
G01X-76902Y-55041D01*
G01X-76829Y-55012D01*
G01X-76755Y-54984D01*
G01X-76681Y-54958D01*
G01X-76607Y-54933D01*
G01X-76532Y-54910D01*
G01X-76456Y-54887D01*
G01X-76381Y-54866D01*
G01X-76305Y-54847D01*
G01X-76228Y-54828D01*
G01X-76152Y-54811D01*
G01X-76075Y-54796D01*
G01X-75997Y-54781D01*
G01X-75920Y-54768D01*
G01X-75842Y-54757D01*
G01X-75764Y-54747D01*
G01X-75686Y-54738D01*
G01X-75608Y-54730D01*
G01X-75530Y-54724D01*
G01X-75452Y-54719D01*
G01X-75373Y-54716D01*
G01X-75295Y-54714D01*
G01X-75216Y-54713D01*
G01Y-46426D01*
G01X-77092D01*
G01Y-52990D01*
G01X-77201Y-53024D01*
G01X-77309Y-53059D01*
G01X-77416Y-53097D01*
G01X-77523Y-53136D01*
G01X-77628Y-53178D01*
G01X-77734Y-53221D01*
G01X-77838Y-53266D01*
G01X-77942Y-53313D01*
G01X-78045Y-53361D01*
G01X-78147Y-53412D01*
G01X-78248Y-53464D01*
G01X-78348Y-53518D01*
G01X-78447Y-53573D01*
G01X-78545Y-53631D01*
G01X-78642Y-53690D01*
G01X-78738Y-53750D01*
G01X-78833Y-53813D01*
G01X-78927Y-53877D01*
G01X-79020Y-53943D01*
G01X-79112Y-54010D01*
G01X-79202Y-54079D01*
G01X-79291Y-54150D01*
G01X-79379Y-54222D01*
G01X-79466Y-54295D01*
G01X-79551Y-54370D01*
G01X-79635Y-54447D01*
G01X-79718Y-54525D01*
G01X-79799Y-54604D01*
G01X-79879Y-54685D01*
G01X-79958Y-54768D01*
G01X-80035Y-54851D01*
G01X-80110Y-54936D01*
G01X-80184Y-55022D01*
G01X-80257Y-55110D01*
G01X-80328Y-55199D01*
G01X-80397Y-55289D01*
G01X-80465Y-55380D01*
G01X-80531Y-55472D01*
G01X-80596Y-55566D01*
G01X-80659Y-55661D01*
G01X-80720Y-55756D01*
G01X-80780Y-55853D01*
G01X-80838Y-55951D01*
G01X-80894Y-56050D01*
G01X-80949Y-56150D01*
G01X-81001Y-56250D01*
G01X-81052Y-56352D01*
G01X-81101Y-56455D01*
G01X-81149Y-56558D01*
G01X-81194Y-56662D01*
G01X-81238Y-56767D01*
G01X-81280Y-56873D01*
G01X-81320Y-56979D01*
G01X-81358Y-57086D01*
G01X-81394Y-57194D01*
G01X-81429Y-57303D01*
G01X-81461Y-57412D01*
G01X-81492Y-57521D01*
G01X-81520Y-57631D01*
G01X-81547Y-57742D01*
G01X-81572Y-57853D01*
G01X-81595Y-57964D01*
G01X-81616Y-58076D01*
G01X-81635Y-58188D01*
G01X-81651Y-58300D01*
G01X-81666Y-58413D01*
G01X-81679Y-58526D01*
G01X-81690Y-58639D01*
G01X-81700Y-58753D01*
G01X-81707Y-58866D01*
G01X-81712Y-58980D01*
G01X-81715Y-59093D01*
G01X-81716Y-59207D01*
G01X-81715Y-59321D01*
G01X-81712Y-59434D01*
G01X-81707Y-59548D01*
G01X-81700Y-59661D01*
G01X-81692Y-59775D01*
G01X-81681Y-59888D01*
G01X-81668Y-60001D01*
G01X-81653Y-60114D01*
G01X-81636Y-60226D01*
G01X-81618Y-60338D01*
G01X-81597Y-60450D01*
G01X-81575Y-60562D01*
G01X-81550Y-60673D01*
G01X-81523Y-60783D01*
G01X-81495Y-60893D01*
G01X-81465Y-61003D01*
G01X-81432Y-61112D01*
G01X-81398Y-61220D01*
G01X-81362Y-61328D01*
G01X-81324Y-61435D01*
G01X-81284Y-61542D01*
G01X-81243Y-61648D01*
G01X-81199Y-61753D01*
G01X-81154Y-61857D01*
G01X-81107Y-61961D01*
G01X-81058Y-62063D01*
G01X-81007Y-62165D01*
G01X-80955Y-62266D01*
G01X-80900Y-62366D01*
G01X-80844Y-62465D01*
G01X-80787Y-62563D01*
G01X-80727Y-62660D01*
G01X-80666Y-62755D01*
G01X-80603Y-62850D01*
G01X-80539Y-62944D01*
G01X-80473Y-63036D01*
G01X-80405Y-63128D01*
G01X-80336Y-63218D01*
G01X-80265Y-63307D01*
G01X-80193Y-63395D01*
G01X-80119Y-63481D01*
G01X-80043Y-63566D01*
G01X-79966Y-63650D01*
G01X-79888Y-63732D01*
G01X-79808Y-63813D01*
G01X-79727Y-63893D01*
G01X-79645Y-63971D01*
G01X-79561Y-64048D01*
G01X-79475Y-64123D01*
G01X-79389Y-64197D01*
G01X-79301Y-64269D01*
G01X-79212Y-64340D01*
G01X-79122Y-64409D01*
G01X-79030Y-64477D01*
G01X-78938Y-64542D01*
G01X-78844Y-64607D01*
G01X-78749Y-64669D01*
G01X-78653Y-64730D01*
G01X-78556Y-64790D01*
G01X-78458Y-64847D01*
G01X-78359Y-64903D01*
G01X-78259Y-64957D01*
G01X-78158Y-65009D01*
G01X-78056Y-65060D01*
G01X-77953Y-65109D01*
G01X-77850Y-65156D01*
G01X-77745Y-65201D01*
G01X-77640Y-65244D01*
G01X-77534Y-65286D01*
G01X-77428Y-65325D01*
G01X-77321Y-65363D01*
G01X-77213Y-65399D01*
G01X-77104Y-65433D01*
G01X-76995Y-65465D01*
G01X-76885Y-65495D01*
G01X-76775Y-65524D01*
G01X-76665Y-65550D01*
G01X-76554Y-65574D01*
G01X-76442Y-65597D01*
G01X-76330Y-65617D01*
G01X-76218Y-65636D01*
G01X-76106Y-65652D01*
G01X-75993Y-65667D01*
G01X-75880Y-65679D01*
G01X-75767Y-65690D01*
G01X-75653Y-65699D01*
G01X-75540Y-65705D01*
G01X-75426Y-65710D01*
G01X-75312Y-65713D01*
G01X-75199D01*
G01X-75085Y-65712D01*
G01X-74971Y-65709D01*
G01X-74858Y-65703D01*
G01X-74744Y-65696D01*
G01X-74631Y-65687D01*
G01X-74518Y-65676D01*
G01X-74405Y-65663D01*
G01X-74292Y-65647D01*
G01X-74180Y-65630D01*
G01X-74068Y-65611D01*
G01X-73956Y-65590D01*
G01X-73845Y-65567D01*
G01X-73734Y-65542D01*
G01X-73623Y-65515D01*
G01X-73513Y-65486D01*
G01X-73404Y-65456D01*
G01X-73295Y-65423D01*
G01X-73186Y-65388D01*
G01X-73079Y-65352D01*
G01X-72972Y-65314D01*
G01X-72865Y-65273D01*
G01X-72760Y-65231D01*
G01X-72655Y-65187D01*
G01X-72551Y-65142D01*
G01X-72447Y-65094D01*
G01X-72345Y-65045D01*
G01X-72243Y-64994D01*
G01X-72143Y-64941D01*
G01X-72043Y-64886D01*
G01X-71944Y-64830D01*
G01X-71846Y-64772D01*
G01X-71750Y-64712D01*
G01X-71654Y-64651D01*
G01X-71559Y-64587D01*
G01X-71466Y-64523D01*
G01X-71374Y-64456D01*
G01X-71283Y-64388D01*
G01X-71193Y-64319D01*
G01X-71104Y-64247D01*
G01X-71016Y-64175D01*
G01X-70930Y-64100D01*
G01X-70846Y-64025D01*
G01X-70762Y-63948D01*
G01X-70680Y-63869D01*
G01X-70599Y-63789D01*
G01X-70520Y-63707D01*
G01X-70442Y-63625D01*
G01X-70365Y-63540D01*
G01X-70290Y-63455D01*
G01X-70217Y-63368D01*
G01X-70145Y-63280D01*
G01X-70075Y-63191D01*
G01X-70006Y-63100D01*
G01X-69939Y-63008D01*
G01X-69873Y-62916D01*
G01X-69809Y-62821D01*
G01X-69747Y-62726D01*
G01X-69686Y-62630D01*
G01X-69627Y-62533D01*
G01X-69570Y-62435D01*
G01X-69515Y-62335D01*
G01X-69461Y-62235D01*
G01X-69409Y-62134D01*
G01X-69359Y-62032D01*
G01X-69310Y-61929D01*
G01X-69264Y-61825D01*
G01X-69219Y-61721D01*
G01X-69176Y-61616D01*
G01X-69135Y-61510D01*
G01X-69096Y-61403D01*
G01X-69058Y-61295D01*
G01X-69023Y-61187D01*
G01X-68989Y-61079D01*
G01X-68958Y-60970D01*
G01X-68928Y-60860D01*
G01X-68900Y-60750D01*
G01X-68874Y-60639D01*
G01X-68850Y-60528D01*
G01X-68828Y-60416D01*
G01X-68808Y-60304D01*
G01X-68790Y-60192D01*
G01X-68774Y-60079D01*
G01X-68760Y-59967D01*
G01X-68747Y-59854D01*
G01X-68737Y-59740D01*
G01X-68729Y-59627D01*
G01X-68723Y-59513D01*
G01X-68718Y-59400D01*
G01X-68716Y-59286D01*
G01Y-59172D01*
G01X-68718Y-59059D01*
G01X-68721Y-58945D01*
G01X-68727Y-58831D01*
G01X-68735Y-58718D01*
G01X-68744Y-58605D01*
G01X-68756Y-58492D01*
G01X-68770Y-58379D01*
G01X-68785Y-58266D01*
G01X-68803Y-58154D01*
G01X-68822Y-58042D01*
G01X-68844Y-57930D01*
G01X-68867Y-57819D01*
G01X-68892Y-57708D01*
G01X-68920Y-57597D01*
G01X-68949Y-57488D01*
G01X-68980Y-57378D01*
G01X-69013Y-57269D01*
G01X-69048Y-57161D01*
G01X-69085Y-57054D01*
G01X-69124Y-56947D01*
G01X-69164Y-56840D01*
G01X-69207Y-56735D01*
G01X-69251Y-56630D01*
G01X-69297Y-56526D01*
G01X-69345Y-56423D01*
G01X-69395Y-56321D01*
G01X-69446Y-56219D01*
G01X-69499Y-56119D01*
G01X-69554Y-56019D01*
G01X-69611Y-55921D01*
G01X-69670Y-55823D01*
G01X-69730Y-55727D01*
G01X-69791Y-55631D01*
G01X-69855Y-55537D01*
G01X-69920Y-55444D01*
G01X-69987Y-55352D01*
G01X-70055Y-55261D01*
G01X-70125Y-55171D01*
G01X-70197Y-55083D01*
G01X-70270Y-54996D01*
G01X-70344Y-54910D01*
G01X-70420Y-54825D01*
G01X-70498Y-54742D01*
G01X-70577Y-54660D01*
G01X-70657Y-54580D01*
G01X-70739Y-54501D01*
G01X-70822Y-54423D01*
G01X-70906Y-54347D01*
G01X-70992Y-54272D01*
G01X-71079Y-54199D01*
G01X-71167Y-54128D01*
G01X-71257Y-54058D01*
G01X-71348Y-53989D01*
G01X-71440Y-53922D01*
G01X-71533Y-53857D01*
G01X-71627Y-53793D01*
G01X-71723Y-53731D01*
G01X-71819Y-53671D01*
G01X-71916Y-53613D01*
G01X-72015Y-53556D01*
G01X-72114Y-53501D01*
G01X-72215Y-53447D01*
G01X-72316Y-53396D01*
G01X-72418Y-53346D01*
G01X-72521Y-53298D01*
G01X-72625Y-53251D01*
G01X-72730Y-53207D01*
G01X-72835Y-53164D01*
G01X-72942Y-53124D01*
G01X-73048Y-53085D01*
G01X-73156Y-53048D01*
G01X-73264Y-53013D01*
G01X-73373Y-52980D01*
G01X-73482Y-52948D01*
G01X-73592Y-52919D01*
G37*
G36*
G01X232016Y23991D02*
G01X232018Y23878D01*
G01X232021Y23764D01*
G01X232027Y23650D01*
G01X232035Y23537D01*
G01X232044Y23424D01*
G01X232056Y23311D01*
G01X232070Y23198D01*
G01X232085Y23085D01*
G01X232103Y22973D01*
G01X232122Y22861D01*
G01X232144Y22749D01*
G01X232167Y22638D01*
G01X232192Y22527D01*
G01X232220Y22416D01*
G01X232249Y22307D01*
G01X232280Y22197D01*
G01X232313Y22088D01*
G01X232348Y21980D01*
G01X232385Y21873D01*
G01X232424Y21766D01*
G01X232464Y21659D01*
G01X232507Y21554D01*
G01X232551Y21449D01*
G01X232597Y21345D01*
G01X232645Y21242D01*
G01X232695Y21140D01*
G01X232746Y21038D01*
G01X232799Y20938D01*
G01X232854Y20838D01*
G01X232911Y20740D01*
G01X232970Y20642D01*
G01X233030Y20546D01*
G01X233091Y20450D01*
G01X233155Y20356D01*
G01X233220Y20263D01*
G01X233287Y20171D01*
G01X233355Y20080D01*
G01X233425Y19990D01*
G01X233497Y19902D01*
G01X233570Y19815D01*
G01X233644Y19729D01*
G01X233720Y19644D01*
G01X233798Y19561D01*
G01X233877Y19479D01*
G01X233957Y19399D01*
G01X234039Y19320D01*
G01X234122Y19242D01*
G01X234206Y19166D01*
G01X234292Y19091D01*
G01X234379Y19018D01*
G01X234467Y18947D01*
G01X234557Y18877D01*
G01X234648Y18808D01*
G01X234740Y18741D01*
G01X234833Y18676D01*
G01X234927Y18612D01*
G01X235023Y18550D01*
G01X235119Y18490D01*
G01X235216Y18432D01*
G01X235315Y18375D01*
G01X235414Y18320D01*
G01X235515Y18266D01*
G01X235616Y18215D01*
G01X235718Y18165D01*
G01X235821Y18117D01*
G01X235925Y18070D01*
G01X236030Y18026D01*
G01X236135Y17983D01*
G01X236242Y17943D01*
G01X236348Y17904D01*
G01X236456Y17867D01*
G01X236564Y17832D01*
G01X236673Y17799D01*
G01X236782Y17767D01*
G01X236892Y17738D01*
G01Y11245D01*
G01X240392D01*
G01Y17809D01*
G01X240501Y17843D01*
G01X240609Y17878D01*
G01X240716Y17916D01*
G01X240823Y17955D01*
G01X240928Y17997D01*
G01X241034Y18040D01*
G01X241138Y18085D01*
G01X241242Y18132D01*
G01X241345Y18180D01*
G01X241447Y18231D01*
G01X241548Y18283D01*
G01X241648Y18337D01*
G01X241747Y18392D01*
G01X241845Y18450D01*
G01X241942Y18509D01*
G01X242038Y18569D01*
G01X242133Y18632D01*
G01X242227Y18696D01*
G01X242320Y18762D01*
G01X242412Y18829D01*
G01X242502Y18898D01*
G01X242591Y18969D01*
G01X242679Y19041D01*
G01X242766Y19114D01*
G01X242851Y19189D01*
G01X242935Y19266D01*
G01X243018Y19344D01*
G01X243099Y19423D01*
G01X243179Y19504D01*
G01X243258Y19587D01*
G01X243335Y19670D01*
G01X243410Y19755D01*
G01X243484Y19841D01*
G01X243557Y19929D01*
G01X243628Y20018D01*
G01X243697Y20108D01*
G01X243765Y20199D01*
G01X243831Y20291D01*
G01X243896Y20385D01*
G01X243959Y20480D01*
G01X244020Y20575D01*
G01X244080Y20672D01*
G01X244138Y20770D01*
G01X244194Y20869D01*
G01X244249Y20969D01*
G01X244301Y21069D01*
G01X244352Y21171D01*
G01X244401Y21274D01*
G01X244449Y21377D01*
G01X244494Y21481D01*
G01X244538Y21586D01*
G01X244580Y21692D01*
G01X244620Y21798D01*
G01X244658Y21905D01*
G01X244694Y22013D01*
G01X244729Y22122D01*
G01X244761Y22231D01*
G01X244792Y22340D01*
G01X244820Y22450D01*
G01X244847Y22561D01*
G01X244872Y22672D01*
G01X244895Y22783D01*
G01X244916Y22895D01*
G01X244935Y23007D01*
G01X244951Y23119D01*
G01X244966Y23232D01*
G01X244979Y23345D01*
G01X244990Y23458D01*
G01X245000Y23572D01*
G01X245007Y23685D01*
G01X245012Y23799D01*
G01X245015Y23912D01*
G01X245016Y24026D01*
G01X245015Y24140D01*
G01X245012Y24253D01*
G01X245007Y24367D01*
G01X245000Y24480D01*
G01X244992Y24594D01*
G01X244981Y24707D01*
G01X244968Y24820D01*
G01X244953Y24933D01*
G01X244936Y25045D01*
G01X244918Y25157D01*
G01X244897Y25269D01*
G01X244875Y25381D01*
G01X244850Y25492D01*
G01X244823Y25602D01*
G01X244795Y25712D01*
G01X244765Y25822D01*
G01X244732Y25931D01*
G01X244698Y26039D01*
G01X244662Y26147D01*
G01X244624Y26254D01*
G01X244584Y26361D01*
G01X244543Y26467D01*
G01X244499Y26572D01*
G01X244454Y26676D01*
G01X244407Y26780D01*
G01X244358Y26882D01*
G01X244307Y26984D01*
G01X244255Y27085D01*
G01X244200Y27185D01*
G01X244144Y27284D01*
G01X244087Y27382D01*
G01X244027Y27479D01*
G01X243966Y27574D01*
G01X243903Y27669D01*
G01X243839Y27763D01*
G01X243773Y27855D01*
G01X243705Y27947D01*
G01X243636Y28037D01*
G01X243565Y28126D01*
G01X243493Y28214D01*
G01X243419Y28300D01*
G01X243343Y28385D01*
G01X243266Y28469D01*
G01X243188Y28551D01*
G01X243108Y28632D01*
G01X243027Y28712D01*
G01X242945Y28790D01*
G01X242861Y28867D01*
G01X242775Y28942D01*
G01X242689Y29016D01*
G01X242601Y29088D01*
G01X242512Y29159D01*
G01X242422Y29228D01*
G01X242330Y29296D01*
G01X242238Y29361D01*
G01X242144Y29426D01*
G01X242049Y29488D01*
G01X241953Y29549D01*
G01X241856Y29609D01*
G01X241758Y29666D01*
G01X241659Y29722D01*
G01X241559Y29776D01*
G01X241458Y29828D01*
G01X241356Y29879D01*
G01X241253Y29928D01*
G01X241150Y29975D01*
G01X241045Y30020D01*
G01X240940Y30063D01*
G01X240834Y30105D01*
G01X240728Y30144D01*
G01X240621Y30182D01*
G01X240513Y30218D01*
G01X240404Y30252D01*
G01X240295Y30284D01*
G01X240185Y30314D01*
G01X240075Y30343D01*
G01X239965Y30369D01*
G01X239854Y30393D01*
G01X239742Y30416D01*
G01X239630Y30436D01*
G01X239518Y30455D01*
G01X239406Y30471D01*
G01X239293Y30486D01*
G01X239180Y30498D01*
G01X239067Y30509D01*
G01X238953Y30518D01*
G01X238840Y30524D01*
G01X238726Y30529D01*
G01X238612Y30532D01*
G01X238516D01*
G01Y28532D01*
G01X238595Y28531D01*
G01X238673Y28529D01*
G01X238752Y28526D01*
G01X238830Y28521D01*
G01X238908Y28515D01*
G01X238986Y28507D01*
G01X239064Y28498D01*
G01X239142Y28488D01*
G01X239220Y28477D01*
G01X239297Y28464D01*
G01X239375Y28449D01*
G01X239452Y28434D01*
G01X239528Y28417D01*
G01X239605Y28398D01*
G01X239681Y28379D01*
G01X239756Y28358D01*
G01X239832Y28335D01*
G01X239907Y28312D01*
G01X239981Y28287D01*
G01X240055Y28261D01*
G01X240129Y28233D01*
G01X240202Y28204D01*
G01X240274Y28174D01*
G01X240346Y28143D01*
G01X240418Y28110D01*
G01X240489Y28077D01*
G01X240559Y28042D01*
G01X240629Y28005D01*
G01X240698Y27968D01*
G01X240766Y27929D01*
G01X240834Y27889D01*
G01X240901Y27848D01*
G01X240967Y27806D01*
G01X241032Y27763D01*
G01X241097Y27718D01*
G01X241161Y27673D01*
G01X241224Y27626D01*
G01X241286Y27578D01*
G01X241348Y27529D01*
G01X241409Y27479D01*
G01X241468Y27428D01*
G01X241527Y27376D01*
G01X241585Y27323D01*
G01X241642Y27269D01*
G01X241698Y27214D01*
G01X241753Y27158D01*
G01X241807Y27101D01*
G01X241860Y27043D01*
G01X241912Y26984D01*
G01X241963Y26925D01*
G01X242013Y26864D01*
G01X242062Y26802D01*
G01X242110Y26740D01*
G01X242157Y26677D01*
G01X242202Y26613D01*
G01X242247Y26548D01*
G01X242290Y26483D01*
G01X242332Y26417D01*
G01X242373Y26350D01*
G01X242413Y26282D01*
G01X242452Y26214D01*
G01X242489Y26145D01*
G01X242526Y26075D01*
G01X242561Y26005D01*
G01X242594Y25934D01*
G01X242627Y25862D01*
G01X242658Y25790D01*
G01X242688Y25718D01*
G01X242717Y25645D01*
G01X242745Y25571D01*
G01X242771Y25497D01*
G01X242796Y25423D01*
G01X242819Y25348D01*
G01X242842Y25272D01*
G01X242863Y25197D01*
G01X242882Y25121D01*
G01X242901Y25044D01*
G01X242918Y24968D01*
G01X242933Y24891D01*
G01X242948Y24813D01*
G01X242961Y24736D01*
G01X242972Y24658D01*
G01X242982Y24580D01*
G01X242991Y24502D01*
G01X242999Y24424D01*
G01X243005Y24346D01*
G01X243010Y24268D01*
G01X243013Y24189D01*
G01X243015Y24111D01*
G01X243016Y24032D01*
G01X243015Y23953D01*
G01X243013Y23875D01*
G01X243010Y23796D01*
G01X243005Y23718D01*
G01X242999Y23640D01*
G01X242991Y23562D01*
G01X242982Y23484D01*
G01X242972Y23406D01*
G01X242961Y23328D01*
G01X242948Y23251D01*
G01X242933Y23173D01*
G01X242918Y23096D01*
G01X242901Y23020D01*
G01X242882Y22943D01*
G01X242863Y22867D01*
G01X242842Y22792D01*
G01X242819Y22716D01*
G01X242796Y22641D01*
G01X242771Y22567D01*
G01X242745Y22493D01*
G01X242717Y22419D01*
G01X242688Y22346D01*
G01X242658Y22274D01*
G01X242627Y22202D01*
G01X242594Y22130D01*
G01X242561Y22059D01*
G01X242526Y21989D01*
G01X242489Y21919D01*
G01X242452Y21850D01*
G01X242413Y21782D01*
G01X242373Y21714D01*
G01X242332Y21647D01*
G01X242290Y21581D01*
G01X242247Y21516D01*
G01X242202Y21451D01*
G01X242157Y21387D01*
G01X242110Y21324D01*
G01X242062Y21262D01*
G01X242013Y21200D01*
G01X241963Y21139D01*
G01X241912Y21080D01*
G01X241860Y21021D01*
G01X241807Y20963D01*
G01X241753Y20906D01*
G01X241698Y20850D01*
G01X241642Y20795D01*
G01X241585Y20741D01*
G01X241527Y20688D01*
G01X241468Y20636D01*
G01X241409Y20585D01*
G01X241348Y20535D01*
G01X241286Y20486D01*
G01X241224Y20438D01*
G01X241161Y20391D01*
G01X241097Y20346D01*
G01X241032Y20301D01*
G01X240967Y20258D01*
G01X240901Y20216D01*
G01X240834Y20175D01*
G01X240766Y20135D01*
G01X240698Y20096D01*
G01X240629Y20059D01*
G01X240559Y20022D01*
G01X240489Y19987D01*
G01X240418Y19954D01*
G01X240346Y19921D01*
G01X240274Y19890D01*
G01X240202Y19860D01*
G01X240129Y19831D01*
G01X240055Y19803D01*
G01X239981Y19777D01*
G01X239907Y19752D01*
G01X239832Y19729D01*
G01X239756Y19706D01*
G01X239681Y19685D01*
G01X239605Y19666D01*
G01X239528Y19647D01*
G01X239452Y19630D01*
G01X239375Y19615D01*
G01X239297Y19600D01*
G01X239220Y19587D01*
G01X239142Y19576D01*
G01X239064Y19566D01*
G01X238986Y19557D01*
G01X238908Y19549D01*
G01X238830Y19543D01*
G01X238752Y19538D01*
G01X238673Y19535D01*
G01X238595Y19533D01*
G01X238516Y19532D01*
G01X238437Y19533D01*
G01X238359Y19535D01*
G01X238280Y19538D01*
G01X238202Y19543D01*
G01X238124Y19549D01*
G01X238046Y19557D01*
G01X237968Y19566D01*
G01X237890Y19576D01*
G01X237812Y19587D01*
G01X237735Y19600D01*
G01X237657Y19615D01*
G01X237580Y19630D01*
G01X237504Y19647D01*
G01X237427Y19666D01*
G01X237351Y19685D01*
G01X237276Y19706D01*
G01X237200Y19729D01*
G01X237125Y19752D01*
G01X237051Y19777D01*
G01X236977Y19803D01*
G01X236903Y19831D01*
G01X236830Y19860D01*
G01X236758Y19890D01*
G01X236686Y19921D01*
G01X236614Y19954D01*
G01X236543Y19987D01*
G01X236473Y20022D01*
G01X236403Y20059D01*
G01X236334Y20096D01*
G01X236266Y20135D01*
G01X236198Y20175D01*
G01X236131Y20216D01*
G01X236065Y20258D01*
G01X236000Y20301D01*
G01X235935Y20346D01*
G01X235871Y20391D01*
G01X235808Y20438D01*
G01X235746Y20486D01*
G01X235684Y20535D01*
G01X235623Y20585D01*
G01X235564Y20636D01*
G01X235505Y20688D01*
G01X235447Y20741D01*
G01X235390Y20795D01*
G01X235334Y20850D01*
G01X235279Y20906D01*
G01X235225Y20963D01*
G01X235172Y21021D01*
G01X235120Y21080D01*
G01X235069Y21139D01*
G01X235019Y21200D01*
G01X234970Y21262D01*
G01X234922Y21324D01*
G01X234875Y21387D01*
G01X234830Y21451D01*
G01X234785Y21516D01*
G01X234742Y21581D01*
G01X234700Y21647D01*
G01X234659Y21714D01*
G01X234619Y21782D01*
G01X234580Y21850D01*
G01X234543Y21919D01*
G01X234506Y21989D01*
G01X234471Y22059D01*
G01X234438Y22130D01*
G01X234405Y22202D01*
G01X234374Y22274D01*
G01X234344Y22346D01*
G01X234315Y22419D01*
G01X234287Y22493D01*
G01X234261Y22567D01*
G01X234236Y22641D01*
G01X234213Y22716D01*
G01X234190Y22792D01*
G01X234169Y22867D01*
G01X234150Y22943D01*
G01X234131Y23020D01*
G01X234114Y23096D01*
G01X234099Y23173D01*
G01X234084Y23251D01*
G01X234071Y23328D01*
G01X234060Y23406D01*
G01X234050Y23484D01*
G01X234041Y23562D01*
G01X234033Y23640D01*
G01X234027Y23718D01*
G01X234022Y23796D01*
G01X234019Y23875D01*
G01X234017Y23953D01*
G01X234016Y24032D01*
G01X234017Y24111D01*
G01X234019Y24189D01*
G01X234022Y24268D01*
G01X234027Y24346D01*
G01X234033Y24424D01*
G01X234041Y24502D01*
G01X234050Y24580D01*
G01X234060Y24658D01*
G01X234071Y24736D01*
G01X234084Y24813D01*
G01X234099Y24891D01*
G01X234114Y24968D01*
G01X234131Y25044D01*
G01X234150Y25121D01*
G01X234169Y25197D01*
G01X234190Y25272D01*
G01X234213Y25348D01*
G01X234236Y25423D01*
G01X234261Y25497D01*
G01X234287Y25571D01*
G01X234315Y25645D01*
G01X234344Y25718D01*
G01X234374Y25790D01*
G01X234405Y25862D01*
G01X234438Y25934D01*
G01X234471Y26005D01*
G01X234506Y26075D01*
G01X234543Y26145D01*
G01X234580Y26214D01*
G01X234619Y26282D01*
G01X234659Y26350D01*
G01X234700Y26417D01*
G01X234742Y26483D01*
G01X234785Y26548D01*
G01X234830Y26613D01*
G01X234875Y26677D01*
G01X234922Y26740D01*
G01X234970Y26802D01*
G01X235019Y26864D01*
G01X235069Y26925D01*
G01X235120Y26984D01*
G01X235172Y27043D01*
G01X235225Y27101D01*
G01X235279Y27158D01*
G01X235334Y27214D01*
G01X235390Y27269D01*
G01X235447Y27323D01*
G01X235505Y27376D01*
G01X235564Y27428D01*
G01X235623Y27479D01*
G01X235684Y27529D01*
G01X235746Y27578D01*
G01X235808Y27626D01*
G01X235871Y27673D01*
G01X235935Y27718D01*
G01X236000Y27763D01*
G01X236065Y27806D01*
G01X236131Y27848D01*
G01X236198Y27889D01*
G01X236266Y27929D01*
G01X236334Y27968D01*
G01X236403Y28005D01*
G01X236473Y28042D01*
G01X236543Y28077D01*
G01X236614Y28110D01*
G01X236686Y28143D01*
G01X236758Y28174D01*
G01X236830Y28204D01*
G01X236903Y28233D01*
G01X236977Y28261D01*
G01X237051Y28287D01*
G01X237125Y28312D01*
G01X237200Y28335D01*
G01X237276Y28358D01*
G01X237351Y28379D01*
G01X237427Y28398D01*
G01X237504Y28417D01*
G01X237580Y28434D01*
G01X237657Y28449D01*
G01X237735Y28464D01*
G01X237812Y28477D01*
G01X237890Y28488D01*
G01X237968Y28498D01*
G01X238046Y28507D01*
G01X238124Y28515D01*
G01X238202Y28521D01*
G01X238280Y28526D01*
G01X238359Y28529D01*
G01X238437Y28531D01*
G01X238516Y28532D01*
G01Y30532D01*
G01X238499D01*
G01X238385Y30531D01*
G01X238271Y30528D01*
G01X238158Y30522D01*
G01X238044Y30515D01*
G01X237931Y30506D01*
G01X237818Y30495D01*
G01X237705Y30482D01*
G01X237592Y30466D01*
G01X237480Y30449D01*
G01X237368Y30430D01*
G01X237256Y30409D01*
G01X237145Y30386D01*
G01X237034Y30361D01*
G01X236923Y30334D01*
G01X236813Y30305D01*
G01X236704Y30275D01*
G01X236595Y30242D01*
G01X236486Y30207D01*
G01X236379Y30171D01*
G01X236272Y30133D01*
G01X236165Y30092D01*
G01X236060Y30050D01*
G01X235955Y30006D01*
G01X235851Y29961D01*
G01X235747Y29913D01*
G01X235645Y29864D01*
G01X235543Y29813D01*
G01X235443Y29760D01*
G01X235343Y29705D01*
G01X235244Y29649D01*
G01X235146Y29591D01*
G01X235050Y29531D01*
G01X234954Y29470D01*
G01X234859Y29406D01*
G01X234766Y29342D01*
G01X234674Y29275D01*
G01X234583Y29207D01*
G01X234493Y29138D01*
G01X234404Y29066D01*
G01X234316Y28994D01*
G01X234230Y28919D01*
G01X234146Y28844D01*
G01X234062Y28767D01*
G01X233980Y28688D01*
G01X233899Y28608D01*
G01X233820Y28526D01*
G01X233742Y28444D01*
G01X233665Y28359D01*
G01X233590Y28274D01*
G01X233517Y28187D01*
G01X233445Y28099D01*
G01X233375Y28010D01*
G01X233306Y27919D01*
G01X233239Y27827D01*
G01X233173Y27735D01*
G01X233109Y27640D01*
G01X233047Y27545D01*
G01X232986Y27449D01*
G01X232927Y27352D01*
G01X232870Y27254D01*
G01X232815Y27154D01*
G01X232761Y27054D01*
G01X232709Y26953D01*
G01X232659Y26851D01*
G01X232610Y26748D01*
G01X232564Y26644D01*
G01X232519Y26540D01*
G01X232476Y26435D01*
G01X232435Y26329D01*
G01X232396Y26222D01*
G01X232358Y26114D01*
G01X232323Y26006D01*
G01X232289Y25898D01*
G01X232258Y25789D01*
G01X232228Y25679D01*
G01X232200Y25569D01*
G01X232174Y25458D01*
G01X232150Y25347D01*
G01X232128Y25235D01*
G01X232108Y25123D01*
G01X232090Y25011D01*
G01X232074Y24898D01*
G01X232060Y24786D01*
G01X232047Y24673D01*
G01X232037Y24559D01*
G01X232029Y24446D01*
G01X232023Y24332D01*
G01X232018Y24219D01*
G01X232016Y24105D01*
G01X232016Y23991D01*
G37*
G36*
G01X380422Y196738D02*
G01Y203231D01*
G01X378798D01*
G01Y194944D01*
G01X378877Y194943D01*
G01X378955Y194941D01*
G01X379034Y194938D01*
G01X379112Y194933D01*
G01X379190Y194927D01*
G01X379268Y194919D01*
G01X379346Y194910D01*
G01X379424Y194900D01*
G01X379502Y194889D01*
G01X379579Y194876D01*
G01X379657Y194861D01*
G01X379734Y194846D01*
G01X379810Y194829D01*
G01X379887Y194810D01*
G01X379963Y194791D01*
G01X380038Y194770D01*
G01X380114Y194747D01*
G01X380189Y194724D01*
G01X380263Y194699D01*
G01X380337Y194673D01*
G01X380411Y194645D01*
G01X380484Y194616D01*
G01X380556Y194586D01*
G01X380628Y194555D01*
G01X380700Y194522D01*
G01X380771Y194489D01*
G01X380841Y194454D01*
G01X380911Y194417D01*
G01X380980Y194380D01*
G01X381048Y194341D01*
G01X381116Y194301D01*
G01X381183Y194260D01*
G01X381249Y194218D01*
G01X381314Y194175D01*
G01X381379Y194130D01*
G01X381443Y194085D01*
G01X381506Y194038D01*
G01X381568Y193990D01*
G01X381630Y193941D01*
G01X381691Y193891D01*
G01X381750Y193840D01*
G01X381809Y193788D01*
G01X381867Y193735D01*
G01X381924Y193681D01*
G01X381980Y193626D01*
G01X382035Y193570D01*
G01X382089Y193513D01*
G01X382142Y193455D01*
G01X382194Y193396D01*
G01X382245Y193337D01*
G01X382295Y193276D01*
G01X382344Y193214D01*
G01X382392Y193152D01*
G01X382439Y193089D01*
G01X382484Y193025D01*
G01X382529Y192960D01*
G01X382572Y192895D01*
G01X382614Y192829D01*
G01X382655Y192762D01*
G01X382695Y192694D01*
G01X382734Y192626D01*
G01X382771Y192557D01*
G01X382808Y192487D01*
G01X382843Y192417D01*
G01X382876Y192346D01*
G01X382909Y192274D01*
G01X382940Y192202D01*
G01X382970Y192130D01*
G01X382999Y192057D01*
G01X383027Y191983D01*
G01X383053Y191909D01*
G01X383078Y191835D01*
G01X383101Y191760D01*
G01X383124Y191684D01*
G01X383145Y191609D01*
G01X383164Y191533D01*
G01X383183Y191456D01*
G01X383200Y191380D01*
G01X383215Y191303D01*
G01X383230Y191225D01*
G01X383243Y191148D01*
G01X383254Y191070D01*
G01X383264Y190992D01*
G01X383273Y190914D01*
G01X383281Y190836D01*
G01X383287Y190758D01*
G01X383292Y190680D01*
G01X383295Y190601D01*
G01X383297Y190523D01*
G01X383298Y190444D01*
G01X383297Y190365D01*
G01X383295Y190287D01*
G01X383292Y190208D01*
G01X383287Y190130D01*
G01X383281Y190052D01*
G01X383273Y189974D01*
G01X383264Y189896D01*
G01X383254Y189818D01*
G01X383243Y189740D01*
G01X383230Y189663D01*
G01X383215Y189585D01*
G01X383200Y189508D01*
G01X383183Y189432D01*
G01X383164Y189355D01*
G01X383145Y189279D01*
G01X383124Y189204D01*
G01X383101Y189128D01*
G01X383078Y189053D01*
G01X383053Y188979D01*
G01X383027Y188905D01*
G01X382999Y188831D01*
G01X382970Y188758D01*
G01X382940Y188686D01*
G01X382909Y188614D01*
G01X382876Y188542D01*
G01X382843Y188471D01*
G01X382808Y188401D01*
G01X382771Y188331D01*
G01X382734Y188262D01*
G01X382695Y188194D01*
G01X382655Y188126D01*
G01X382614Y188059D01*
G01X382572Y187993D01*
G01X382529Y187928D01*
G01X382484Y187863D01*
G01X382439Y187799D01*
G01X382392Y187736D01*
G01X382344Y187674D01*
G01X382295Y187612D01*
G01X382245Y187551D01*
G01X382194Y187492D01*
G01X382142Y187433D01*
G01X382089Y187375D01*
G01X382035Y187318D01*
G01X381980Y187262D01*
G01X381924Y187207D01*
G01X381867Y187153D01*
G01X381809Y187100D01*
G01X381750Y187048D01*
G01X381691Y186997D01*
G01X381630Y186947D01*
G01X381568Y186898D01*
G01X381506Y186850D01*
G01X381443Y186803D01*
G01X381379Y186758D01*
G01X381314Y186713D01*
G01X381249Y186670D01*
G01X381183Y186628D01*
G01X381116Y186587D01*
G01X381048Y186547D01*
G01X380980Y186508D01*
G01X380911Y186471D01*
G01X380841Y186434D01*
G01X380771Y186399D01*
G01X380700Y186366D01*
G01X380628Y186333D01*
G01X380556Y186302D01*
G01X380484Y186272D01*
G01X380411Y186243D01*
G01X380337Y186215D01*
G01X380263Y186189D01*
G01X380189Y186164D01*
G01X380114Y186141D01*
G01X380038Y186118D01*
G01X379963Y186097D01*
G01X379887Y186078D01*
G01X379810Y186059D01*
G01X379734Y186042D01*
G01X379657Y186027D01*
G01X379579Y186012D01*
G01X379502Y185999D01*
G01X379424Y185988D01*
G01X379346Y185978D01*
G01X379268Y185969D01*
G01X379190Y185961D01*
G01X379112Y185955D01*
G01X379034Y185950D01*
G01X378955Y185947D01*
G01X378877Y185945D01*
G01X378798Y185944D01*
G01X378719Y185945D01*
G01X378641Y185947D01*
G01X378562Y185950D01*
G01X378484Y185955D01*
G01X378406Y185961D01*
G01X378328Y185969D01*
G01X378250Y185978D01*
G01X378172Y185988D01*
G01X378094Y185999D01*
G01X378017Y186012D01*
G01X377939Y186027D01*
G01X377862Y186042D01*
G01X377786Y186059D01*
G01X377709Y186078D01*
G01X377633Y186097D01*
G01X377558Y186118D01*
G01X377482Y186141D01*
G01X377407Y186164D01*
G01X377333Y186189D01*
G01X377259Y186215D01*
G01X377185Y186243D01*
G01X377112Y186272D01*
G01X377040Y186302D01*
G01X376968Y186333D01*
G01X376896Y186366D01*
G01X376825Y186399D01*
G01X376755Y186434D01*
G01X376685Y186471D01*
G01X376616Y186508D01*
G01X376548Y186547D01*
G01X376480Y186587D01*
G01X376413Y186628D01*
G01X376347Y186670D01*
G01X376282Y186713D01*
G01X376217Y186758D01*
G01X376153Y186803D01*
G01X376090Y186850D01*
G01X376028Y186898D01*
G01X375966Y186947D01*
G01X375905Y186997D01*
G01X375846Y187048D01*
G01X375787Y187100D01*
G01X375729Y187153D01*
G01X375672Y187207D01*
G01X375616Y187262D01*
G01X375561Y187318D01*
G01X375507Y187375D01*
G01X375454Y187433D01*
G01X375402Y187492D01*
G01X375351Y187551D01*
G01X375301Y187612D01*
G01X375252Y187674D01*
G01X375204Y187736D01*
G01X375157Y187799D01*
G01X375112Y187863D01*
G01X375067Y187928D01*
G01X375024Y187993D01*
G01X374982Y188059D01*
G01X374941Y188126D01*
G01X374901Y188194D01*
G01X374862Y188262D01*
G01X374825Y188331D01*
G01X374788Y188401D01*
G01X374753Y188471D01*
G01X374720Y188542D01*
G01X374687Y188614D01*
G01X374656Y188686D01*
G01X374626Y188758D01*
G01X374597Y188831D01*
G01X374569Y188905D01*
G01X374543Y188979D01*
G01X374518Y189053D01*
G01X374495Y189128D01*
G01X374472Y189204D01*
G01X374451Y189279D01*
G01X374432Y189355D01*
G01X374413Y189432D01*
G01X374396Y189508D01*
G01X374381Y189585D01*
G01X374366Y189663D01*
G01X374353Y189740D01*
G01X374342Y189818D01*
G01X374332Y189896D01*
G01X374323Y189974D01*
G01X374315Y190052D01*
G01X374309Y190130D01*
G01X374304Y190208D01*
G01X374301Y190287D01*
G01X374299Y190365D01*
G01X374298Y190444D01*
G01X374299Y190523D01*
G01X374301Y190601D01*
G01X374304Y190680D01*
G01X374309Y190758D01*
G01X374315Y190836D01*
G01X374323Y190914D01*
G01X374332Y190992D01*
G01X374342Y191070D01*
G01X374353Y191148D01*
G01X374366Y191225D01*
G01X374381Y191303D01*
G01X374396Y191380D01*
G01X374413Y191456D01*
G01X374432Y191533D01*
G01X374451Y191609D01*
G01X374472Y191684D01*
G01X374495Y191760D01*
G01X374518Y191835D01*
G01X374543Y191909D01*
G01X374569Y191983D01*
G01X374597Y192057D01*
G01X374626Y192130D01*
G01X374656Y192202D01*
G01X374687Y192274D01*
G01X374720Y192346D01*
G01X374753Y192417D01*
G01X374788Y192487D01*
G01X374825Y192557D01*
G01X374862Y192626D01*
G01X374901Y192694D01*
G01X374941Y192762D01*
G01X374982Y192829D01*
G01X375024Y192895D01*
G01X375067Y192960D01*
G01X375112Y193025D01*
G01X375157Y193089D01*
G01X375204Y193152D01*
G01X375252Y193214D01*
G01X375301Y193276D01*
G01X375351Y193337D01*
G01X375402Y193396D01*
G01X375454Y193455D01*
G01X375507Y193513D01*
G01X375561Y193570D01*
G01X375616Y193626D01*
G01X375672Y193681D01*
G01X375729Y193735D01*
G01X375787Y193788D01*
G01X375846Y193840D01*
G01X375905Y193891D01*
G01X375966Y193941D01*
G01X376028Y193990D01*
G01X376090Y194038D01*
G01X376153Y194085D01*
G01X376217Y194130D01*
G01X376282Y194175D01*
G01X376347Y194218D01*
G01X376413Y194260D01*
G01X376480Y194301D01*
G01X376548Y194341D01*
G01X376616Y194380D01*
G01X376685Y194417D01*
G01X376755Y194454D01*
G01X376825Y194489D01*
G01X376896Y194522D01*
G01X376968Y194555D01*
G01X377040Y194586D01*
G01X377112Y194616D01*
G01X377185Y194645D01*
G01X377259Y194673D01*
G01X377333Y194699D01*
G01X377407Y194724D01*
G01X377482Y194747D01*
G01X377558Y194770D01*
G01X377633Y194791D01*
G01X377709Y194810D01*
G01X377786Y194829D01*
G01X377862Y194846D01*
G01X377939Y194861D01*
G01X378017Y194876D01*
G01X378094Y194889D01*
G01X378172Y194900D01*
G01X378250Y194910D01*
G01X378328Y194919D01*
G01X378406Y194927D01*
G01X378484Y194933D01*
G01X378562Y194938D01*
G01X378641Y194941D01*
G01X378719Y194943D01*
G01X378798Y194944D01*
G01Y203231D01*
G01X376922D01*
G01Y196667D01*
G01X376813Y196633D01*
G01X376705Y196598D01*
G01X376598Y196560D01*
G01X376491Y196521D01*
G01X376386Y196479D01*
G01X376280Y196436D01*
G01X376176Y196391D01*
G01X376072Y196344D01*
G01X375969Y196296D01*
G01X375867Y196245D01*
G01X375766Y196193D01*
G01X375666Y196139D01*
G01X375567Y196084D01*
G01X375469Y196026D01*
G01X375372Y195967D01*
G01X375276Y195907D01*
G01X375181Y195844D01*
G01X375087Y195780D01*
G01X374994Y195714D01*
G01X374902Y195647D01*
G01X374812Y195578D01*
G01X374723Y195507D01*
G01X374635Y195435D01*
G01X374548Y195362D01*
G01X374463Y195287D01*
G01X374379Y195210D01*
G01X374296Y195132D01*
G01X374215Y195053D01*
G01X374135Y194972D01*
G01X374056Y194889D01*
G01X373979Y194806D01*
G01X373904Y194721D01*
G01X373830Y194635D01*
G01X373757Y194547D01*
G01X373686Y194458D01*
G01X373617Y194368D01*
G01X373549Y194277D01*
G01X373483Y194185D01*
G01X373418Y194091D01*
G01X373355Y193996D01*
G01X373294Y193901D01*
G01X373234Y193804D01*
G01X373176Y193706D01*
G01X373120Y193607D01*
G01X373065Y193507D01*
G01X373013Y193407D01*
G01X372962Y193305D01*
G01X372913Y193202D01*
G01X372865Y193099D01*
G01X372820Y192995D01*
G01X372776Y192890D01*
G01X372734Y192784D01*
G01X372694Y192678D01*
G01X372656Y192571D01*
G01X372620Y192463D01*
G01X372585Y192354D01*
G01X372553Y192245D01*
G01X372522Y192136D01*
G01X372494Y192026D01*
G01X372467Y191915D01*
G01X372442Y191804D01*
G01X372419Y191693D01*
G01X372398Y191581D01*
G01X372379Y191469D01*
G01X372363Y191357D01*
G01X372348Y191244D01*
G01X372335Y191131D01*
G01X372324Y191018D01*
G01X372314Y190904D01*
G01X372307Y190791D01*
G01X372302Y190677D01*
G01X372299Y190564D01*
G01X372298Y190450D01*
G01X372299Y190336D01*
G01X372302Y190223D01*
G01X372307Y190109D01*
G01X372314Y189996D01*
G01X372322Y189882D01*
G01X372333Y189769D01*
G01X372346Y189656D01*
G01X372361Y189543D01*
G01X372378Y189431D01*
G01X372396Y189319D01*
G01X372417Y189207D01*
G01X372439Y189095D01*
G01X372464Y188984D01*
G01X372491Y188874D01*
G01X372519Y188764D01*
G01X372549Y188654D01*
G01X372582Y188545D01*
G01X372616Y188437D01*
G01X372652Y188329D01*
G01X372690Y188222D01*
G01X372730Y188115D01*
G01X372771Y188009D01*
G01X372815Y187904D01*
G01X372860Y187800D01*
G01X372907Y187696D01*
G01X372956Y187594D01*
G01X373007Y187492D01*
G01X373059Y187391D01*
G01X373114Y187291D01*
G01X373170Y187192D01*
G01X373227Y187094D01*
G01X373287Y186997D01*
G01X373348Y186902D01*
G01X373411Y186807D01*
G01X373475Y186713D01*
G01X373541Y186621D01*
G01X373609Y186529D01*
G01X373678Y186439D01*
G01X373749Y186350D01*
G01X373821Y186262D01*
G01X373895Y186176D01*
G01X373971Y186091D01*
G01X374048Y186007D01*
G01X374126Y185925D01*
G01X374206Y185844D01*
G01X374287Y185764D01*
G01X374369Y185686D01*
G01X374453Y185609D01*
G01X374539Y185534D01*
G01X374625Y185460D01*
G01X374713Y185388D01*
G01X374802Y185317D01*
G01X374892Y185248D01*
G01X374984Y185180D01*
G01X375076Y185115D01*
G01X375170Y185050D01*
G01X375265Y184988D01*
G01X375361Y184927D01*
G01X375458Y184867D01*
G01X375556Y184810D01*
G01X375655Y184754D01*
G01X375755Y184700D01*
G01X375856Y184648D01*
G01X375958Y184597D01*
G01X376061Y184548D01*
G01X376164Y184501D01*
G01X376269Y184456D01*
G01X376374Y184413D01*
G01X376480Y184371D01*
G01X376586Y184332D01*
G01X376693Y184294D01*
G01X376801Y184258D01*
G01X376910Y184224D01*
G01X377019Y184192D01*
G01X377129Y184162D01*
G01X377239Y184133D01*
G01X377349Y184107D01*
G01X377460Y184083D01*
G01X377572Y184060D01*
G01X377684Y184040D01*
G01X377796Y184021D01*
G01X377908Y184005D01*
G01X378021Y183990D01*
G01X378134Y183978D01*
G01X378247Y183967D01*
G01X378361Y183958D01*
G01X378474Y183952D01*
G01X378588Y183947D01*
G01X378702Y183944D01*
G01X378815D01*
G01X378929Y183945D01*
G01X379043Y183948D01*
G01X379156Y183954D01*
G01X379270Y183961D01*
G01X379383Y183970D01*
G01X379496Y183981D01*
G01X379609Y183994D01*
G01X379722Y184010D01*
G01X379834Y184027D01*
G01X379946Y184046D01*
G01X380058Y184067D01*
G01X380169Y184090D01*
G01X380280Y184115D01*
G01X380391Y184142D01*
G01X380501Y184171D01*
G01X380610Y184201D01*
G01X380719Y184234D01*
G01X380828Y184269D01*
G01X380935Y184305D01*
G01X381042Y184343D01*
G01X381149Y184384D01*
G01X381254Y184426D01*
G01X381359Y184470D01*
G01X381463Y184515D01*
G01X381567Y184563D01*
G01X381669Y184612D01*
G01X381771Y184663D01*
G01X381871Y184716D01*
G01X381971Y184771D01*
G01X382070Y184827D01*
G01X382168Y184885D01*
G01X382264Y184945D01*
G01X382360Y185006D01*
G01X382455Y185070D01*
G01X382548Y185134D01*
G01X382640Y185201D01*
G01X382731Y185269D01*
G01X382821Y185338D01*
G01X382910Y185410D01*
G01X382998Y185482D01*
G01X383084Y185557D01*
G01X383168Y185632D01*
G01X383252Y185709D01*
G01X383334Y185788D01*
G01X383415Y185868D01*
G01X383494Y185950D01*
G01X383572Y186032D01*
G01X383649Y186117D01*
G01X383724Y186202D01*
G01X383797Y186289D01*
G01X383869Y186377D01*
G01X383939Y186466D01*
G01X384008Y186557D01*
G01X384075Y186649D01*
G01X384141Y186741D01*
G01X384205Y186836D01*
G01X384267Y186931D01*
G01X384328Y187027D01*
G01X384387Y187124D01*
G01X384444Y187222D01*
G01X384499Y187322D01*
G01X384553Y187422D01*
G01X384605Y187523D01*
G01X384655Y187625D01*
G01X384704Y187728D01*
G01X384750Y187832D01*
G01X384795Y187936D01*
G01X384838Y188041D01*
G01X384879Y188147D01*
G01X384918Y188254D01*
G01X384956Y188362D01*
G01X384991Y188470D01*
G01X385025Y188578D01*
G01X385056Y188687D01*
G01X385086Y188797D01*
G01X385114Y188907D01*
G01X385140Y189018D01*
G01X385164Y189129D01*
G01X385186Y189241D01*
G01X385206Y189353D01*
G01X385224Y189465D01*
G01X385240Y189578D01*
G01X385254Y189690D01*
G01X385267Y189803D01*
G01X385277Y189917D01*
G01X385285Y190030D01*
G01X385291Y190144D01*
G01X385296Y190257D01*
G01X385298Y190371D01*
G01Y190485D01*
G01X385296Y190598D01*
G01X385293Y190712D01*
G01X385287Y190826D01*
G01X385279Y190939D01*
G01X385270Y191052D01*
G01X385258Y191165D01*
G01X385244Y191278D01*
G01X385229Y191391D01*
G01X385211Y191503D01*
G01X385192Y191615D01*
G01X385170Y191727D01*
G01X385147Y191838D01*
G01X385122Y191949D01*
G01X385094Y192060D01*
G01X385065Y192169D01*
G01X385034Y192279D01*
G01X385001Y192388D01*
G01X384966Y192496D01*
G01X384929Y192603D01*
G01X384890Y192710D01*
G01X384850Y192817D01*
G01X384807Y192922D01*
G01X384763Y193027D01*
G01X384717Y193131D01*
G01X384669Y193234D01*
G01X384619Y193336D01*
G01X384568Y193438D01*
G01X384515Y193538D01*
G01X384460Y193638D01*
G01X384403Y193736D01*
G01X384344Y193834D01*
G01X384284Y193930D01*
G01X384223Y194026D01*
G01X384159Y194120D01*
G01X384094Y194213D01*
G01X384027Y194305D01*
G01X383959Y194396D01*
G01X383889Y194486D01*
G01X383817Y194574D01*
G01X383744Y194661D01*
G01X383670Y194747D01*
G01X383594Y194832D01*
G01X383516Y194915D01*
G01X383437Y194997D01*
G01X383357Y195077D01*
G01X383275Y195156D01*
G01X383192Y195234D01*
G01X383108Y195310D01*
G01X383022Y195385D01*
G01X382935Y195458D01*
G01X382847Y195529D01*
G01X382757Y195599D01*
G01X382666Y195668D01*
G01X382574Y195735D01*
G01X382481Y195800D01*
G01X382387Y195864D01*
G01X382291Y195926D01*
G01X382195Y195986D01*
G01X382098Y196044D01*
G01X381999Y196101D01*
G01X381900Y196156D01*
G01X381799Y196210D01*
G01X381698Y196261D01*
G01X381596Y196311D01*
G01X381493Y196359D01*
G01X381389Y196406D01*
G01X381284Y196450D01*
G01X381179Y196493D01*
G01X381072Y196533D01*
G01X380966Y196572D01*
G01X380858Y196609D01*
G01X380750Y196644D01*
G01X380641Y196677D01*
G01X380532Y196709D01*
G01X380422Y196738D01*
G37*
G36*
G01X311133Y308823D02*
G01X311135Y308710D01*
G01X311138Y308596D01*
G01X311144Y308482D01*
G01X311152Y308369D01*
G01X311161Y308256D01*
G01X311173Y308143D01*
G01X311187Y308030D01*
G01X311202Y307917D01*
G01X311220Y307805D01*
G01X311239Y307693D01*
G01X311261Y307581D01*
G01X311284Y307470D01*
G01X311309Y307359D01*
G01X311337Y307248D01*
G01X311366Y307139D01*
G01X311397Y307029D01*
G01X311430Y306920D01*
G01X311465Y306812D01*
G01X311502Y306705D01*
G01X311541Y306598D01*
G01X311581Y306491D01*
G01X311624Y306386D01*
G01X311668Y306281D01*
G01X311714Y306177D01*
G01X311762Y306074D01*
G01X311812Y305972D01*
G01X311863Y305870D01*
G01X311916Y305770D01*
G01X311971Y305670D01*
G01X312028Y305572D01*
G01X312087Y305474D01*
G01X312147Y305378D01*
G01X312208Y305282D01*
G01X312272Y305188D01*
G01X312337Y305095D01*
G01X312404Y305003D01*
G01X312472Y304912D01*
G01X312542Y304822D01*
G01X312614Y304734D01*
G01X312687Y304647D01*
G01X312761Y304561D01*
G01X312837Y304476D01*
G01X312915Y304393D01*
G01X312994Y304311D01*
G01X313074Y304231D01*
G01X313156Y304152D01*
G01X313239Y304074D01*
G01X313323Y303998D01*
G01X313409Y303923D01*
G01X313496Y303850D01*
G01X313584Y303779D01*
G01X313674Y303709D01*
G01X313765Y303640D01*
G01X313857Y303573D01*
G01X313950Y303508D01*
G01X314044Y303444D01*
G01X314140Y303382D01*
G01X314236Y303322D01*
G01X314333Y303264D01*
G01X314432Y303207D01*
G01X314531Y303152D01*
G01X314632Y303098D01*
G01X314733Y303047D01*
G01X314835Y302997D01*
G01X314938Y302949D01*
G01X315042Y302902D01*
G01X315147Y302858D01*
G01X315252Y302815D01*
G01X315359Y302775D01*
G01X315465Y302736D01*
G01X315573Y302699D01*
G01X315681Y302664D01*
G01X315790Y302631D01*
G01X315899Y302599D01*
G01X316009Y302570D01*
G01Y296077D01*
G01X319509D01*
G01Y302641D01*
G01X319618Y302675D01*
G01X319726Y302710D01*
G01X319833Y302748D01*
G01X319940Y302787D01*
G01X320045Y302829D01*
G01X320151Y302872D01*
G01X320255Y302917D01*
G01X320359Y302964D01*
G01X320462Y303012D01*
G01X320564Y303063D01*
G01X320665Y303115D01*
G01X320765Y303169D01*
G01X320864Y303224D01*
G01X320962Y303282D01*
G01X321059Y303341D01*
G01X321155Y303401D01*
G01X321250Y303464D01*
G01X321344Y303528D01*
G01X321437Y303594D01*
G01X321529Y303661D01*
G01X321619Y303730D01*
G01X321708Y303801D01*
G01X321796Y303873D01*
G01X321883Y303946D01*
G01X321968Y304021D01*
G01X322052Y304098D01*
G01X322135Y304176D01*
G01X322216Y304255D01*
G01X322296Y304336D01*
G01X322375Y304419D01*
G01X322452Y304502D01*
G01X322527Y304587D01*
G01X322601Y304673D01*
G01X322674Y304761D01*
G01X322745Y304850D01*
G01X322814Y304940D01*
G01X322882Y305031D01*
G01X322948Y305123D01*
G01X323013Y305217D01*
G01X323076Y305312D01*
G01X323137Y305407D01*
G01X323197Y305504D01*
G01X323255Y305602D01*
G01X323311Y305701D01*
G01X323366Y305801D01*
G01X323418Y305901D01*
G01X323469Y306003D01*
G01X323518Y306106D01*
G01X323566Y306209D01*
G01X323611Y306313D01*
G01X323655Y306418D01*
G01X323697Y306524D01*
G01X323737Y306630D01*
G01X323775Y306737D01*
G01X323811Y306845D01*
G01X323846Y306954D01*
G01X323878Y307063D01*
G01X323909Y307172D01*
G01X323937Y307282D01*
G01X323964Y307393D01*
G01X323989Y307504D01*
G01X324012Y307615D01*
G01X324033Y307727D01*
G01X324052Y307839D01*
G01X324068Y307951D01*
G01X324083Y308064D01*
G01X324096Y308177D01*
G01X324107Y308290D01*
G01X324117Y308404D01*
G01X324124Y308517D01*
G01X324129Y308631D01*
G01X324132Y308744D01*
G01X324133Y308858D01*
G01X324132Y308972D01*
G01X324129Y309085D01*
G01X324124Y309199D01*
G01X324117Y309312D01*
G01X324109Y309426D01*
G01X324098Y309539D01*
G01X324085Y309652D01*
G01X324070Y309765D01*
G01X324053Y309877D01*
G01X324035Y309989D01*
G01X324014Y310101D01*
G01X323992Y310213D01*
G01X323967Y310324D01*
G01X323940Y310434D01*
G01X323912Y310544D01*
G01X323882Y310654D01*
G01X323849Y310763D01*
G01X323815Y310871D01*
G01X323779Y310979D01*
G01X323741Y311086D01*
G01X323701Y311193D01*
G01X323660Y311299D01*
G01X323616Y311404D01*
G01X323571Y311508D01*
G01X323524Y311612D01*
G01X323475Y311714D01*
G01X323424Y311816D01*
G01X323372Y311917D01*
G01X323317Y312017D01*
G01X323261Y312116D01*
G01X323204Y312214D01*
G01X323144Y312311D01*
G01X323083Y312406D01*
G01X323020Y312501D01*
G01X322956Y312595D01*
G01X322890Y312687D01*
G01X322822Y312779D01*
G01X322753Y312869D01*
G01X322682Y312958D01*
G01X322610Y313046D01*
G01X322536Y313132D01*
G01X322460Y313217D01*
G01X322383Y313301D01*
G01X322305Y313383D01*
G01X322225Y313464D01*
G01X322144Y313544D01*
G01X322062Y313622D01*
G01X321978Y313699D01*
G01X321892Y313774D01*
G01X321806Y313848D01*
G01X321718Y313920D01*
G01X321629Y313991D01*
G01X321539Y314060D01*
G01X321447Y314128D01*
G01X321355Y314193D01*
G01X321261Y314258D01*
G01X321166Y314320D01*
G01X321070Y314381D01*
G01X320973Y314441D01*
G01X320875Y314498D01*
G01X320776Y314554D01*
G01X320676Y314608D01*
G01X320575Y314660D01*
G01X320473Y314711D01*
G01X320370Y314760D01*
G01X320267Y314807D01*
G01X320162Y314852D01*
G01X320057Y314895D01*
G01X319951Y314937D01*
G01X319845Y314976D01*
G01X319738Y315014D01*
G01X319630Y315050D01*
G01X319521Y315084D01*
G01X319412Y315116D01*
G01X319302Y315146D01*
G01X319192Y315175D01*
G01X319082Y315201D01*
G01X318971Y315225D01*
G01X318859Y315248D01*
G01X318747Y315268D01*
G01X318635Y315287D01*
G01X318523Y315303D01*
G01X318410Y315318D01*
G01X318297Y315330D01*
G01X318184Y315341D01*
G01X318070Y315350D01*
G01X317957Y315356D01*
G01X317843Y315361D01*
G01X317729Y315364D01*
G01X317633D01*
G01Y313364D01*
G01X317712Y313363D01*
G01X317790Y313361D01*
G01X317869Y313358D01*
G01X317947Y313353D01*
G01X318025Y313347D01*
G01X318103Y313339D01*
G01X318181Y313330D01*
G01X318259Y313320D01*
G01X318337Y313309D01*
G01X318414Y313296D01*
G01X318492Y313281D01*
G01X318569Y313266D01*
G01X318645Y313249D01*
G01X318722Y313230D01*
G01X318798Y313211D01*
G01X318873Y313190D01*
G01X318949Y313167D01*
G01X319024Y313144D01*
G01X319098Y313119D01*
G01X319172Y313093D01*
G01X319246Y313065D01*
G01X319319Y313036D01*
G01X319391Y313006D01*
G01X319463Y312975D01*
G01X319535Y312942D01*
G01X319606Y312909D01*
G01X319676Y312874D01*
G01X319746Y312837D01*
G01X319815Y312800D01*
G01X319883Y312761D01*
G01X319951Y312721D01*
G01X320018Y312680D01*
G01X320084Y312638D01*
G01X320149Y312595D01*
G01X320214Y312550D01*
G01X320278Y312505D01*
G01X320341Y312458D01*
G01X320403Y312410D01*
G01X320465Y312361D01*
G01X320526Y312311D01*
G01X320585Y312260D01*
G01X320644Y312208D01*
G01X320702Y312155D01*
G01X320759Y312101D01*
G01X320815Y312046D01*
G01X320870Y311990D01*
G01X320924Y311933D01*
G01X320977Y311875D01*
G01X321029Y311816D01*
G01X321080Y311757D01*
G01X321130Y311696D01*
G01X321179Y311634D01*
G01X321227Y311572D01*
G01X321274Y311509D01*
G01X321319Y311445D01*
G01X321364Y311380D01*
G01X321407Y311315D01*
G01X321449Y311249D01*
G01X321490Y311182D01*
G01X321530Y311114D01*
G01X321569Y311046D01*
G01X321606Y310977D01*
G01X321643Y310907D01*
G01X321678Y310837D01*
G01X321711Y310766D01*
G01X321744Y310694D01*
G01X321775Y310622D01*
G01X321805Y310550D01*
G01X321834Y310477D01*
G01X321862Y310403D01*
G01X321888Y310329D01*
G01X321913Y310255D01*
G01X321936Y310180D01*
G01X321959Y310104D01*
G01X321980Y310029D01*
G01X321999Y309953D01*
G01X322018Y309876D01*
G01X322035Y309800D01*
G01X322050Y309723D01*
G01X322065Y309645D01*
G01X322078Y309568D01*
G01X322089Y309490D01*
G01X322099Y309412D01*
G01X322108Y309334D01*
G01X322116Y309256D01*
G01X322122Y309178D01*
G01X322127Y309100D01*
G01X322130Y309021D01*
G01X322132Y308943D01*
G01X322133Y308864D01*
G01X322132Y308785D01*
G01X322130Y308707D01*
G01X322127Y308628D01*
G01X322122Y308550D01*
G01X322116Y308472D01*
G01X322108Y308394D01*
G01X322099Y308316D01*
G01X322089Y308238D01*
G01X322078Y308160D01*
G01X322065Y308083D01*
G01X322050Y308005D01*
G01X322035Y307928D01*
G01X322018Y307852D01*
G01X321999Y307775D01*
G01X321980Y307699D01*
G01X321959Y307624D01*
G01X321936Y307548D01*
G01X321913Y307473D01*
G01X321888Y307399D01*
G01X321862Y307325D01*
G01X321834Y307251D01*
G01X321805Y307178D01*
G01X321775Y307106D01*
G01X321744Y307034D01*
G01X321711Y306962D01*
G01X321678Y306891D01*
G01X321643Y306821D01*
G01X321606Y306751D01*
G01X321569Y306682D01*
G01X321530Y306614D01*
G01X321490Y306546D01*
G01X321449Y306479D01*
G01X321407Y306413D01*
G01X321364Y306348D01*
G01X321319Y306283D01*
G01X321274Y306219D01*
G01X321227Y306156D01*
G01X321179Y306094D01*
G01X321130Y306032D01*
G01X321080Y305971D01*
G01X321029Y305912D01*
G01X320977Y305853D01*
G01X320924Y305795D01*
G01X320870Y305738D01*
G01X320815Y305682D01*
G01X320759Y305627D01*
G01X320702Y305573D01*
G01X320644Y305520D01*
G01X320585Y305468D01*
G01X320526Y305417D01*
G01X320465Y305367D01*
G01X320403Y305318D01*
G01X320341Y305270D01*
G01X320278Y305223D01*
G01X320214Y305178D01*
G01X320149Y305133D01*
G01X320084Y305090D01*
G01X320018Y305048D01*
G01X319951Y305007D01*
G01X319883Y304967D01*
G01X319815Y304928D01*
G01X319746Y304891D01*
G01X319676Y304854D01*
G01X319606Y304819D01*
G01X319535Y304786D01*
G01X319463Y304753D01*
G01X319391Y304722D01*
G01X319319Y304692D01*
G01X319246Y304663D01*
G01X319172Y304635D01*
G01X319098Y304609D01*
G01X319024Y304584D01*
G01X318949Y304561D01*
G01X318873Y304538D01*
G01X318798Y304517D01*
G01X318722Y304498D01*
G01X318645Y304479D01*
G01X318569Y304462D01*
G01X318492Y304447D01*
G01X318414Y304432D01*
G01X318337Y304419D01*
G01X318259Y304408D01*
G01X318181Y304398D01*
G01X318103Y304389D01*
G01X318025Y304381D01*
G01X317947Y304375D01*
G01X317869Y304370D01*
G01X317790Y304367D01*
G01X317712Y304365D01*
G01X317633Y304364D01*
G01X317554Y304365D01*
G01X317476Y304367D01*
G01X317397Y304370D01*
G01X317319Y304375D01*
G01X317241Y304381D01*
G01X317163Y304389D01*
G01X317085Y304398D01*
G01X317007Y304408D01*
G01X316929Y304419D01*
G01X316852Y304432D01*
G01X316774Y304447D01*
G01X316697Y304462D01*
G01X316621Y304479D01*
G01X316544Y304498D01*
G01X316468Y304517D01*
G01X316393Y304538D01*
G01X316317Y304561D01*
G01X316242Y304584D01*
G01X316168Y304609D01*
G01X316094Y304635D01*
G01X316020Y304663D01*
G01X315947Y304692D01*
G01X315875Y304722D01*
G01X315803Y304753D01*
G01X315731Y304786D01*
G01X315660Y304819D01*
G01X315590Y304854D01*
G01X315520Y304891D01*
G01X315451Y304928D01*
G01X315383Y304967D01*
G01X315315Y305007D01*
G01X315248Y305048D01*
G01X315182Y305090D01*
G01X315117Y305133D01*
G01X315052Y305178D01*
G01X314988Y305223D01*
G01X314925Y305270D01*
G01X314863Y305318D01*
G01X314801Y305367D01*
G01X314740Y305417D01*
G01X314681Y305468D01*
G01X314622Y305520D01*
G01X314564Y305573D01*
G01X314507Y305627D01*
G01X314451Y305682D01*
G01X314396Y305738D01*
G01X314342Y305795D01*
G01X314289Y305853D01*
G01X314237Y305912D01*
G01X314186Y305971D01*
G01X314136Y306032D01*
G01X314087Y306094D01*
G01X314039Y306156D01*
G01X313992Y306219D01*
G01X313947Y306283D01*
G01X313902Y306348D01*
G01X313859Y306413D01*
G01X313817Y306479D01*
G01X313776Y306546D01*
G01X313736Y306614D01*
G01X313697Y306682D01*
G01X313660Y306751D01*
G01X313623Y306821D01*
G01X313588Y306891D01*
G01X313555Y306962D01*
G01X313522Y307034D01*
G01X313491Y307106D01*
G01X313461Y307178D01*
G01X313432Y307251D01*
G01X313404Y307325D01*
G01X313378Y307399D01*
G01X313353Y307473D01*
G01X313330Y307548D01*
G01X313307Y307624D01*
G01X313286Y307699D01*
G01X313267Y307775D01*
G01X313248Y307852D01*
G01X313231Y307928D01*
G01X313216Y308005D01*
G01X313201Y308083D01*
G01X313188Y308160D01*
G01X313177Y308238D01*
G01X313167Y308316D01*
G01X313158Y308394D01*
G01X313150Y308472D01*
G01X313144Y308550D01*
G01X313139Y308628D01*
G01X313136Y308707D01*
G01X313134Y308785D01*
G01X313133Y308864D01*
G01X313134Y308943D01*
G01X313136Y309021D01*
G01X313139Y309100D01*
G01X313144Y309178D01*
G01X313150Y309256D01*
G01X313158Y309334D01*
G01X313167Y309412D01*
G01X313177Y309490D01*
G01X313188Y309568D01*
G01X313201Y309645D01*
G01X313216Y309723D01*
G01X313231Y309800D01*
G01X313248Y309876D01*
G01X313267Y309953D01*
G01X313286Y310029D01*
G01X313307Y310104D01*
G01X313330Y310180D01*
G01X313353Y310255D01*
G01X313378Y310329D01*
G01X313404Y310403D01*
G01X313432Y310477D01*
G01X313461Y310550D01*
G01X313491Y310622D01*
G01X313522Y310694D01*
G01X313555Y310766D01*
G01X313588Y310837D01*
G01X313623Y310907D01*
G01X313660Y310977D01*
G01X313697Y311046D01*
G01X313736Y311114D01*
G01X313776Y311182D01*
G01X313817Y311249D01*
G01X313859Y311315D01*
G01X313902Y311380D01*
G01X313947Y311445D01*
G01X313992Y311509D01*
G01X314039Y311572D01*
G01X314087Y311634D01*
G01X314136Y311696D01*
G01X314186Y311757D01*
G01X314237Y311816D01*
G01X314289Y311875D01*
G01X314342Y311933D01*
G01X314396Y311990D01*
G01X314451Y312046D01*
G01X314507Y312101D01*
G01X314564Y312155D01*
G01X314622Y312208D01*
G01X314681Y312260D01*
G01X314740Y312311D01*
G01X314801Y312361D01*
G01X314863Y312410D01*
G01X314925Y312458D01*
G01X314988Y312505D01*
G01X315052Y312550D01*
G01X315117Y312595D01*
G01X315182Y312638D01*
G01X315248Y312680D01*
G01X315315Y312721D01*
G01X315383Y312761D01*
G01X315451Y312800D01*
G01X315520Y312837D01*
G01X315590Y312874D01*
G01X315660Y312909D01*
G01X315731Y312942D01*
G01X315803Y312975D01*
G01X315875Y313006D01*
G01X315947Y313036D01*
G01X316020Y313065D01*
G01X316094Y313093D01*
G01X316168Y313119D01*
G01X316242Y313144D01*
G01X316317Y313167D01*
G01X316393Y313190D01*
G01X316468Y313211D01*
G01X316544Y313230D01*
G01X316621Y313249D01*
G01X316697Y313266D01*
G01X316774Y313281D01*
G01X316852Y313296D01*
G01X316929Y313309D01*
G01X317007Y313320D01*
G01X317085Y313330D01*
G01X317163Y313339D01*
G01X317241Y313347D01*
G01X317319Y313353D01*
G01X317397Y313358D01*
G01X317476Y313361D01*
G01X317554Y313363D01*
G01X317633Y313364D01*
G01Y315364D01*
G01X317616D01*
G01X317502Y315363D01*
G01X317388Y315360D01*
G01X317275Y315354D01*
G01X317161Y315347D01*
G01X317048Y315338D01*
G01X316935Y315327D01*
G01X316822Y315314D01*
G01X316709Y315298D01*
G01X316597Y315281D01*
G01X316485Y315262D01*
G01X316373Y315241D01*
G01X316262Y315218D01*
G01X316151Y315193D01*
G01X316040Y315166D01*
G01X315930Y315137D01*
G01X315821Y315107D01*
G01X315712Y315074D01*
G01X315603Y315039D01*
G01X315496Y315003D01*
G01X315389Y314965D01*
G01X315282Y314924D01*
G01X315177Y314882D01*
G01X315072Y314838D01*
G01X314968Y314793D01*
G01X314864Y314745D01*
G01X314762Y314696D01*
G01X314660Y314645D01*
G01X314560Y314592D01*
G01X314460Y314537D01*
G01X314361Y314481D01*
G01X314263Y314423D01*
G01X314167Y314363D01*
G01X314071Y314302D01*
G01X313976Y314238D01*
G01X313883Y314174D01*
G01X313791Y314107D01*
G01X313700Y314039D01*
G01X313610Y313970D01*
G01X313521Y313898D01*
G01X313433Y313826D01*
G01X313347Y313751D01*
G01X313263Y313676D01*
G01X313179Y313599D01*
G01X313097Y313520D01*
G01X313016Y313440D01*
G01X312937Y313358D01*
G01X312859Y313276D01*
G01X312782Y313191D01*
G01X312707Y313106D01*
G01X312634Y313019D01*
G01X312562Y312931D01*
G01X312492Y312842D01*
G01X312423Y312751D01*
G01X312356Y312659D01*
G01X312290Y312567D01*
G01X312226Y312472D01*
G01X312164Y312377D01*
G01X312103Y312281D01*
G01X312044Y312184D01*
G01X311987Y312086D01*
G01X311932Y311986D01*
G01X311878Y311886D01*
G01X311826Y311785D01*
G01X311776Y311683D01*
G01X311727Y311580D01*
G01X311681Y311476D01*
G01X311636Y311372D01*
G01X311593Y311267D01*
G01X311552Y311161D01*
G01X311513Y311054D01*
G01X311475Y310946D01*
G01X311440Y310838D01*
G01X311406Y310730D01*
G01X311375Y310621D01*
G01X311345Y310511D01*
G01X311317Y310401D01*
G01X311291Y310290D01*
G01X311267Y310179D01*
G01X311245Y310067D01*
G01X311225Y309955D01*
G01X311207Y309843D01*
G01X311191Y309730D01*
G01X311177Y309618D01*
G01X311164Y309505D01*
G01X311154Y309391D01*
G01X311146Y309278D01*
G01X311140Y309164D01*
G01X311135Y309051D01*
G01X311133Y308937D01*
G01X311133Y308823D01*
G37*
G36*
G01X-12685Y292478D02*
G01X-12682Y292150D01*
G01X-12674Y291822D01*
G01X-12659Y291495D01*
G01X-12639Y291168D01*
G01X-12614Y290841D01*
G01X-12582Y290514D01*
G01X-12545Y290189D01*
G01X-12502Y289864D01*
G01X-12454Y289539D01*
G01X-12400Y289216D01*
G01X-12340Y288894D01*
G01X-12275Y288572D01*
G01X-12204Y288252D01*
G01X-12127Y287933D01*
G01X-12045Y287616D01*
G01X-11957Y287300D01*
G01X-11864Y286986D01*
G01X-11766Y286673D01*
G01X-11662Y286362D01*
G01X-11552Y286053D01*
G01X-11437Y285746D01*
G01X-11317Y285441D01*
G01X-11192Y285138D01*
G01X-11061Y284837D01*
G01X-10925Y284539D01*
G01X-10784Y284243D01*
G01X-10638Y283950D01*
G01X-10486Y283659D01*
G01X-10330Y283371D01*
G01X-10168Y283086D01*
G01X-10002Y282803D01*
G01X-9831Y282523D01*
G01X-9654Y282247D01*
G01X-9473Y281974D01*
G01X-9288Y281703D01*
G01X-9097Y281436D01*
G01X-8902Y281173D01*
G01X-8703Y280913D01*
G01X-8499Y280656D01*
G01X-8290Y280403D01*
G01X-8077Y280154D01*
G01X-7860Y279908D01*
G01X-7638Y279667D01*
G01X-7413Y279429D01*
G01X-7183Y279195D01*
G01X-6949Y278965D01*
G01X-6711Y278740D01*
G01X-6470Y278518D01*
G01X-6224Y278301D01*
G01X-5975Y278088D01*
G01X-5722Y277879D01*
G01X-5465Y277675D01*
G01X-5205Y277476D01*
G01X-4942Y277281D01*
G01X-4675Y277090D01*
G01X-4404Y276905D01*
G01X-4131Y276724D01*
G01X-3855Y276547D01*
G01X-3575Y276376D01*
G01X-3293Y276210D01*
G01X-3007Y276048D01*
G01X-2719Y275892D01*
G01X-2428Y275740D01*
G01X-2135Y275594D01*
G01X-1839Y275453D01*
G01X-1541Y275317D01*
G01X-1240Y275186D01*
G01X-937Y275061D01*
G01X-632Y274941D01*
G01X-325Y274826D01*
G01X-16Y274716D01*
G01X295Y274612D01*
G01X608Y274514D01*
G01X922Y274421D01*
G01X1238Y274333D01*
G01X1555Y274251D01*
G01X1874Y274174D01*
G01X2194Y274103D01*
G01X2516Y274038D01*
G01X2838Y273978D01*
G01X3161Y273924D01*
G01X3486Y273876D01*
G01X3811Y273833D01*
G01X4136Y273796D01*
G01X4463Y273764D01*
G01X4790Y273739D01*
G01X5117Y273719D01*
G01X5444Y273704D01*
G01X5772Y273696D01*
G01X6100Y273693D01*
G01X6428Y273696D01*
G01X6756Y273704D01*
G01X7083Y273719D01*
G01X7410Y273739D01*
G01X7737Y273764D01*
G01X8064Y273796D01*
G01X8389Y273833D01*
G01X8714Y273876D01*
G01X9039Y273924D01*
G01X9362Y273978D01*
G01X9684Y274038D01*
G01X10006Y274103D01*
G01X10326Y274174D01*
G01X10645Y274251D01*
G01X10962Y274333D01*
G01X11278Y274421D01*
G01X11592Y274514D01*
G01X11905Y274612D01*
G01X12216Y274716D01*
G01X12525Y274826D01*
G01X12832Y274941D01*
G01X13137Y275061D01*
G01X13440Y275186D01*
G01X13741Y275317D01*
G01X14039Y275453D01*
G01X14335Y275594D01*
G01X14628Y275740D01*
G01X14919Y275892D01*
G01X15207Y276048D01*
G01X15493Y276210D01*
G01X15775Y276376D01*
G01X16055Y276547D01*
G01X16331Y276724D01*
G01X16604Y276905D01*
G01X16875Y277090D01*
G01X17142Y277281D01*
G01X17405Y277476D01*
G01X17665Y277675D01*
G01X17922Y277879D01*
G01X18175Y278088D01*
G01X18424Y278301D01*
G01X18670Y278518D01*
G01X18911Y278740D01*
G01X19149Y278965D01*
G01X19383Y279195D01*
G01X19613Y279429D01*
G01X19838Y279667D01*
G01X20060Y279908D01*
G01X20277Y280154D01*
G01X20490Y280403D01*
G01X20699Y280656D01*
G01X20903Y280913D01*
G01X21102Y281173D01*
G01X21297Y281436D01*
G01X21488Y281703D01*
G01X21673Y281974D01*
G01X21854Y282247D01*
G01X22031Y282523D01*
G01X22202Y282803D01*
G01X22368Y283085D01*
G01X22530Y283371D01*
G01X22686Y283659D01*
G01X22838Y283950D01*
G01X22984Y284243D01*
G01X23125Y284539D01*
G01X23261Y284837D01*
G01X23392Y285138D01*
G01X23517Y285441D01*
G01X23637Y285746D01*
G01X23752Y286053D01*
G01X23862Y286362D01*
G01X23966Y286673D01*
G01X24064Y286986D01*
G01X24157Y287300D01*
G01X24245Y287616D01*
G01X24327Y287933D01*
G01X24404Y288252D01*
G01X24475Y288572D01*
G01X24540Y288894D01*
G01X24600Y289216D01*
G01X24654Y289539D01*
G01X24702Y289864D01*
G01X24745Y290189D01*
G01X24782Y290514D01*
G01X24814Y290841D01*
G01X24839Y291168D01*
G01X24859Y291495D01*
G01X24874Y291822D01*
G01X24882Y292150D01*
G01X24885Y292478D01*
G01X24882Y292806D01*
G01X24874Y293134D01*
G01X24859Y293461D01*
G01X24839Y293788D01*
G01X24814Y294115D01*
G01X24782Y294442D01*
G01X24745Y294767D01*
G01X24702Y295092D01*
G01X24654Y295417D01*
G01X24600Y295740D01*
G01X24540Y296062D01*
G01X24475Y296384D01*
G01X24404Y296704D01*
G01X24327Y297023D01*
G01X24245Y297340D01*
G01X24157Y297656D01*
G01X24064Y297970D01*
G01X23966Y298283D01*
G01X23862Y298594D01*
G01X23752Y298903D01*
G01X23637Y299210D01*
G01X23517Y299515D01*
G01X23392Y299818D01*
G01X23261Y300119D01*
G01X23125Y300417D01*
G01X22984Y300713D01*
G01X22838Y301006D01*
G01X22686Y301297D01*
G01X22530Y301585D01*
G01X22368Y301871D01*
G01X22202Y302153D01*
G01X22031Y302433D01*
G01X21854Y302709D01*
G01X21673Y302982D01*
G01X21488Y303253D01*
G01X21297Y303520D01*
G01X21102Y303783D01*
G01X20903Y304043D01*
G01X20699Y304300D01*
G01X20490Y304553D01*
G01X20277Y304802D01*
G01X20060Y305048D01*
G01X19838Y305289D01*
G01X19613Y305527D01*
G01X19383Y305761D01*
G01X19149Y305991D01*
G01X18911Y306216D01*
G01X18670Y306438D01*
G01X18424Y306655D01*
G01X18175Y306868D01*
G01X17922Y307077D01*
G01X17665Y307281D01*
G01X17405Y307480D01*
G01X17142Y307675D01*
G01X16875Y307866D01*
G01X16604Y308051D01*
G01X16331Y308232D01*
G01X16055Y308409D01*
G01X15775Y308580D01*
G01X15493Y308746D01*
G01X15207Y308908D01*
G01X14919Y309064D01*
G01X14628Y309216D01*
G01X14335Y309362D01*
G01X14039Y309503D01*
G01X13741Y309639D01*
G01X13440Y309770D01*
G01X13137Y309895D01*
G01X12832Y310015D01*
G01X12525Y310130D01*
G01X12216Y310240D01*
G01X11905Y310344D01*
G01X11592Y310442D01*
G01X11278Y310535D01*
G01X10962Y310623D01*
G01X10645Y310705D01*
G01X10326Y310782D01*
G01X10006Y310853D01*
G01X9684Y310918D01*
G01X9362Y310978D01*
G01X9039Y311032D01*
G01X8714Y311080D01*
G01X8389Y311123D01*
G01X8064Y311160D01*
G01X7737Y311192D01*
G01X7410Y311217D01*
G01X7083Y311237D01*
G01X6756Y311252D01*
G01X6428Y311260D01*
G01X6100Y311263D01*
G01Y298478D01*
G01X6205Y298477D01*
G01X6309Y298474D01*
G01X6414Y298470D01*
G01X6519Y298463D01*
G01X6623Y298455D01*
G01X6727Y298445D01*
G01X6831Y298433D01*
G01X6935Y298420D01*
G01X7039Y298404D01*
G01X7142Y298387D01*
G01X7245Y298368D01*
G01X7347Y298347D01*
G01X7450Y298324D01*
G01X7552Y298300D01*
G01X7653Y298274D01*
G01X7754Y298246D01*
G01X7854Y298216D01*
G01X7954Y298184D01*
G01X8053Y298151D01*
G01X8152Y298116D01*
G01X8250Y298079D01*
G01X8348Y298041D01*
G01X8444Y298001D01*
G01X8540Y297959D01*
G01X8636Y297916D01*
G01X8730Y297871D01*
G01X8824Y297824D01*
G01X8917Y297776D01*
G01X9009Y297726D01*
G01X9100Y297674D01*
G01X9190Y297621D01*
G01X9280Y297566D01*
G01X9368Y297510D01*
G01X9455Y297452D01*
G01X9541Y297393D01*
G01X9627Y297332D01*
G01X9711Y297270D01*
G01X9794Y297206D01*
G01X9876Y297141D01*
G01X9957Y297074D01*
G01X10036Y297006D01*
G01X10115Y296937D01*
G01X10192Y296866D01*
G01X10268Y296794D01*
G01X10343Y296721D01*
G01X10416Y296646D01*
G01X10488Y296570D01*
G01X10559Y296493D01*
G01X10628Y296414D01*
G01X10696Y296335D01*
G01X10763Y296254D01*
G01X10828Y296172D01*
G01X10892Y296089D01*
G01X10954Y296005D01*
G01X11015Y295919D01*
G01X11074Y295833D01*
G01X11132Y295746D01*
G01X11188Y295658D01*
G01X11243Y295568D01*
G01X11296Y295478D01*
G01X11348Y295387D01*
G01X11398Y295295D01*
G01X11446Y295202D01*
G01X11493Y295108D01*
G01X11538Y295014D01*
G01X11581Y294918D01*
G01X11623Y294822D01*
G01X11663Y294726D01*
G01X11701Y294628D01*
G01X11738Y294530D01*
G01X11773Y294431D01*
G01X11806Y294332D01*
G01X11838Y294232D01*
G01X11868Y294132D01*
G01X11896Y294031D01*
G01X11922Y293930D01*
G01X11946Y293828D01*
G01X11969Y293725D01*
G01X11990Y293623D01*
G01X12009Y293520D01*
G01X12026Y293417D01*
G01X12042Y293313D01*
G01X12055Y293209D01*
G01X12067Y293105D01*
G01X12077Y293001D01*
G01X12085Y292897D01*
G01X12092Y292792D01*
G01X12096Y292687D01*
G01X12099Y292583D01*
G01X12100Y292478D01*
G01X12099Y292373D01*
G01X12096Y292269D01*
G01X12092Y292164D01*
G01X12085Y292059D01*
G01X12077Y291955D01*
G01X12067Y291851D01*
G01X12055Y291747D01*
G01X12042Y291643D01*
G01X12026Y291539D01*
G01X12009Y291436D01*
G01X11990Y291333D01*
G01X11969Y291231D01*
G01X11946Y291128D01*
G01X11922Y291026D01*
G01X11896Y290925D01*
G01X11868Y290824D01*
G01X11838Y290724D01*
G01X11806Y290624D01*
G01X11773Y290525D01*
G01X11738Y290426D01*
G01X11701Y290328D01*
G01X11663Y290230D01*
G01X11623Y290134D01*
G01X11581Y290038D01*
G01X11538Y289942D01*
G01X11493Y289848D01*
G01X11446Y289754D01*
G01X11398Y289661D01*
G01X11348Y289569D01*
G01X11296Y289478D01*
G01X11243Y289388D01*
G01X11188Y289298D01*
G01X11132Y289210D01*
G01X11074Y289123D01*
G01X11015Y289037D01*
G01X10954Y288951D01*
G01X10892Y288867D01*
G01X10828Y288784D01*
G01X10763Y288702D01*
G01X10696Y288621D01*
G01X10628Y288542D01*
G01X10559Y288463D01*
G01X10488Y288386D01*
G01X10416Y288310D01*
G01X10343Y288235D01*
G01X10268Y288162D01*
G01X10192Y288090D01*
G01X10115Y288019D01*
G01X10036Y287950D01*
G01X9957Y287882D01*
G01X9876Y287815D01*
G01X9794Y287750D01*
G01X9711Y287686D01*
G01X9627Y287624D01*
G01X9541Y287563D01*
G01X9455Y287504D01*
G01X9368Y287446D01*
G01X9280Y287390D01*
G01X9190Y287335D01*
G01X9100Y287282D01*
G01X9009Y287230D01*
G01X8917Y287180D01*
G01X8824Y287132D01*
G01X8730Y287085D01*
G01X8636Y287040D01*
G01X8540Y286997D01*
G01X8444Y286955D01*
G01X8348Y286915D01*
G01X8250Y286877D01*
G01X8152Y286840D01*
G01X8053Y286805D01*
G01X7954Y286772D01*
G01X7854Y286740D01*
G01X7754Y286710D01*
G01X7653Y286682D01*
G01X7552Y286656D01*
G01X7450Y286632D01*
G01X7347Y286609D01*
G01X7245Y286588D01*
G01X7142Y286569D01*
G01X7039Y286552D01*
G01X6935Y286536D01*
G01X6831Y286523D01*
G01X6727Y286511D01*
G01X6623Y286501D01*
G01X6519Y286493D01*
G01X6414Y286486D01*
G01X6309Y286482D01*
G01X6205Y286479D01*
G01X6100Y286478D01*
G01X5995Y286479D01*
G01X5891Y286482D01*
G01X5786Y286486D01*
G01X5681Y286493D01*
G01X5577Y286501D01*
G01X5473Y286511D01*
G01X5369Y286523D01*
G01X5265Y286536D01*
G01X5161Y286552D01*
G01X5058Y286569D01*
G01X4955Y286588D01*
G01X4853Y286609D01*
G01X4750Y286632D01*
G01X4648Y286656D01*
G01X4547Y286682D01*
G01X4446Y286710D01*
G01X4346Y286740D01*
G01X4246Y286772D01*
G01X4147Y286805D01*
G01X4048Y286840D01*
G01X3950Y286877D01*
G01X3852Y286915D01*
G01X3756Y286955D01*
G01X3660Y286997D01*
G01X3564Y287040D01*
G01X3470Y287085D01*
G01X3376Y287132D01*
G01X3283Y287180D01*
G01X3191Y287230D01*
G01X3100Y287282D01*
G01X3010Y287335D01*
G01X2920Y287390D01*
G01X2832Y287446D01*
G01X2745Y287504D01*
G01X2659Y287563D01*
G01X2573Y287624D01*
G01X2489Y287686D01*
G01X2406Y287750D01*
G01X2324Y287815D01*
G01X2243Y287882D01*
G01X2164Y287950D01*
G01X2085Y288019D01*
G01X2008Y288090D01*
G01X1932Y288162D01*
G01X1857Y288235D01*
G01X1784Y288310D01*
G01X1712Y288386D01*
G01X1641Y288463D01*
G01X1572Y288542D01*
G01X1504Y288621D01*
G01X1437Y288702D01*
G01X1372Y288784D01*
G01X1308Y288867D01*
G01X1246Y288951D01*
G01X1185Y289037D01*
G01X1126Y289123D01*
G01X1068Y289210D01*
G01X1012Y289298D01*
G01X957Y289388D01*
G01X904Y289478D01*
G01X852Y289569D01*
G01X802Y289661D01*
G01X754Y289754D01*
G01X707Y289848D01*
G01X662Y289942D01*
G01X619Y290038D01*
G01X577Y290134D01*
G01X537Y290230D01*
G01X499Y290328D01*
G01X462Y290426D01*
G01X427Y290525D01*
G01X394Y290624D01*
G01X362Y290724D01*
G01X332Y290824D01*
G01X304Y290925D01*
G01X278Y291026D01*
G01X254Y291128D01*
G01X231Y291231D01*
G01X210Y291333D01*
G01X191Y291436D01*
G01X174Y291539D01*
G01X158Y291643D01*
G01X145Y291747D01*
G01X133Y291851D01*
G01X123Y291955D01*
G01X115Y292059D01*
G01X108Y292164D01*
G01X104Y292269D01*
G01X101Y292373D01*
G01X100Y292478D01*
G01X101Y292583D01*
G01X104Y292687D01*
G01X108Y292792D01*
G01X115Y292897D01*
G01X123Y293001D01*
G01X133Y293105D01*
G01X145Y293209D01*
G01X158Y293313D01*
G01X174Y293417D01*
G01X191Y293520D01*
G01X210Y293623D01*
G01X231Y293725D01*
G01X254Y293828D01*
G01X278Y293930D01*
G01X304Y294031D01*
G01X332Y294132D01*
G01X362Y294232D01*
G01X394Y294332D01*
G01X427Y294431D01*
G01X462Y294530D01*
G01X499Y294628D01*
G01X537Y294726D01*
G01X577Y294822D01*
G01X619Y294918D01*
G01X662Y295014D01*
G01X707Y295108D01*
G01X754Y295202D01*
G01X802Y295295D01*
G01X852Y295387D01*
G01X904Y295478D01*
G01X957Y295568D01*
G01X1012Y295658D01*
G01X1068Y295746D01*
G01X1126Y295833D01*
G01X1185Y295919D01*
G01X1246Y296005D01*
G01X1308Y296089D01*
G01X1372Y296172D01*
G01X1437Y296254D01*
G01X1504Y296335D01*
G01X1572Y296414D01*
G01X1641Y296493D01*
G01X1712Y296570D01*
G01X1784Y296646D01*
G01X1857Y296721D01*
G01X1932Y296794D01*
G01X2008Y296866D01*
G01X2085Y296937D01*
G01X2164Y297006D01*
G01X2243Y297074D01*
G01X2324Y297141D01*
G01X2406Y297206D01*
G01X2489Y297270D01*
G01X2573Y297332D01*
G01X2659Y297393D01*
G01X2745Y297452D01*
G01X2832Y297510D01*
G01X2920Y297566D01*
G01X3010Y297621D01*
G01X3100Y297674D01*
G01X3191Y297726D01*
G01X3283Y297776D01*
G01X3376Y297824D01*
G01X3470Y297871D01*
G01X3564Y297916D01*
G01X3660Y297959D01*
G01X3756Y298001D01*
G01X3852Y298041D01*
G01X3950Y298079D01*
G01X4048Y298116D01*
G01X4147Y298151D01*
G01X4246Y298184D01*
G01X4346Y298216D01*
G01X4446Y298246D01*
G01X4547Y298274D01*
G01X4648Y298300D01*
G01X4750Y298324D01*
G01X4853Y298347D01*
G01X4955Y298368D01*
G01X5058Y298387D01*
G01X5161Y298404D01*
G01X5265Y298420D01*
G01X5369Y298433D01*
G01X5473Y298445D01*
G01X5577Y298455D01*
G01X5681Y298463D01*
G01X5786Y298470D01*
G01X5891Y298474D01*
G01X5995Y298477D01*
G01X6100Y298478D01*
G01Y311263D01*
G01X5772Y311260D01*
G01X5444Y311252D01*
G01X5117Y311237D01*
G01X4790Y311217D01*
G01X4463Y311192D01*
G01X4136Y311160D01*
G01X3811Y311123D01*
G01X3486Y311080D01*
G01X3161Y311032D01*
G01X2838Y310978D01*
G01X2516Y310918D01*
G01X2194Y310853D01*
G01X1874Y310782D01*
G01X1555Y310705D01*
G01X1238Y310623D01*
G01X922Y310535D01*
G01X608Y310442D01*
G01X295Y310344D01*
G01X-16Y310240D01*
G01X-325Y310130D01*
G01X-632Y310015D01*
G01X-937Y309895D01*
G01X-1240Y309770D01*
G01X-1541Y309639D01*
G01X-1839Y309503D01*
G01X-2135Y309362D01*
G01X-2428Y309216D01*
G01X-2719Y309064D01*
G01X-3007Y308908D01*
G01X-3293Y308746D01*
G01X-3575Y308580D01*
G01X-3855Y308409D01*
G01X-4131Y308232D01*
G01X-4404Y308051D01*
G01X-4675Y307866D01*
G01X-4942Y307675D01*
G01X-5205Y307480D01*
G01X-5465Y307281D01*
G01X-5722Y307077D01*
G01X-5975Y306868D01*
G01X-6224Y306655D01*
G01X-6470Y306438D01*
G01X-6711Y306216D01*
G01X-6949Y305991D01*
G01X-7183Y305761D01*
G01X-7413Y305527D01*
G01X-7638Y305289D01*
G01X-7860Y305048D01*
G01X-8077Y304802D01*
G01X-8290Y304553D01*
G01X-8499Y304300D01*
G01X-8703Y304043D01*
G01X-8902Y303783D01*
G01X-9097Y303520D01*
G01X-9288Y303253D01*
G01X-9473Y302982D01*
G01X-9654Y302709D01*
G01X-9831Y302433D01*
G01X-10002Y302153D01*
G01X-10168Y301871D01*
G01X-10330Y301585D01*
G01X-10486Y301297D01*
G01X-10638Y301006D01*
G01X-10784Y300713D01*
G01X-10925Y300417D01*
G01X-11061Y300119D01*
G01X-11192Y299818D01*
G01X-11317Y299515D01*
G01X-11437Y299210D01*
G01X-11552Y298903D01*
G01X-11662Y298594D01*
G01X-11766Y298283D01*
G01X-11864Y297970D01*
G01X-11957Y297656D01*
G01X-12045Y297340D01*
G01X-12127Y297023D01*
G01X-12204Y296704D01*
G01X-12275Y296384D01*
G01X-12340Y296062D01*
G01X-12400Y295740D01*
G01X-12454Y295417D01*
G01X-12502Y295092D01*
G01X-12545Y294767D01*
G01X-12582Y294442D01*
G01X-12614Y294115D01*
G01X-12639Y293788D01*
G01X-12659Y293461D01*
G01X-12674Y293134D01*
G01X-12682Y292806D01*
G01X-12685Y292478D01*
G37*
D30*
G01X265180Y8900D02*
G01X265270D01*
G01Y9004D01*
G36*
G01X250390Y-8726D02*
G01Y-2233D01*
G01X248766D01*
G01Y-10520D01*
G01X248845Y-10521D01*
G01X248923Y-10523D01*
G01X249002Y-10526D01*
G01X249080Y-10531D01*
G01X249158Y-10537D01*
G01X249236Y-10545D01*
G01X249314Y-10554D01*
G01X249392Y-10564D01*
G01X249470Y-10575D01*
G01X249547Y-10588D01*
G01X249625Y-10603D01*
G01X249702Y-10618D01*
G01X249778Y-10635D01*
G01X249855Y-10654D01*
G01X249931Y-10673D01*
G01X250006Y-10694D01*
G01X250082Y-10717D01*
G01X250157Y-10740D01*
G01X250231Y-10765D01*
G01X250305Y-10791D01*
G01X250379Y-10819D01*
G01X250452Y-10848D01*
G01X250524Y-10878D01*
G01X250596Y-10909D01*
G01X250668Y-10942D01*
G01X250739Y-10975D01*
G01X250809Y-11010D01*
G01X250879Y-11047D01*
G01X250948Y-11084D01*
G01X251016Y-11123D01*
G01X251084Y-11163D01*
G01X251151Y-11204D01*
G01X251217Y-11246D01*
G01X251282Y-11289D01*
G01X251347Y-11334D01*
G01X251411Y-11379D01*
G01X251474Y-11426D01*
G01X251536Y-11474D01*
G01X251598Y-11523D01*
G01X251659Y-11573D01*
G01X251718Y-11624D01*
G01X251777Y-11676D01*
G01X251835Y-11729D01*
G01X251892Y-11783D01*
G01X251948Y-11838D01*
G01X252003Y-11894D01*
G01X252057Y-11951D01*
G01X252110Y-12009D01*
G01X252162Y-12068D01*
G01X252213Y-12127D01*
G01X252263Y-12188D01*
G01X252312Y-12250D01*
G01X252360Y-12312D01*
G01X252407Y-12375D01*
G01X252452Y-12439D01*
G01X252497Y-12504D01*
G01X252540Y-12569D01*
G01X252582Y-12635D01*
G01X252623Y-12702D01*
G01X252663Y-12770D01*
G01X252702Y-12838D01*
G01X252739Y-12907D01*
G01X252776Y-12977D01*
G01X252811Y-13047D01*
G01X252844Y-13118D01*
G01X252877Y-13190D01*
G01X252908Y-13262D01*
G01X252938Y-13334D01*
G01X252967Y-13407D01*
G01X252995Y-13481D01*
G01X253021Y-13555D01*
G01X253046Y-13629D01*
G01X253069Y-13704D01*
G01X253092Y-13780D01*
G01X253113Y-13855D01*
G01X253132Y-13931D01*
G01X253151Y-14008D01*
G01X253168Y-14084D01*
G01X253183Y-14161D01*
G01X253198Y-14239D01*
G01X253211Y-14316D01*
G01X253222Y-14394D01*
G01X253232Y-14472D01*
G01X253241Y-14550D01*
G01X253249Y-14628D01*
G01X253255Y-14706D01*
G01X253260Y-14784D01*
G01X253263Y-14863D01*
G01X253265Y-14941D01*
G01X253266Y-15020D01*
G01X253265Y-15099D01*
G01X253263Y-15177D01*
G01X253260Y-15256D01*
G01X253255Y-15334D01*
G01X253249Y-15412D01*
G01X253241Y-15490D01*
G01X253232Y-15568D01*
G01X253222Y-15646D01*
G01X253211Y-15724D01*
G01X253198Y-15801D01*
G01X253183Y-15879D01*
G01X253168Y-15956D01*
G01X253151Y-16032D01*
G01X253132Y-16109D01*
G01X253113Y-16185D01*
G01X253092Y-16260D01*
G01X253069Y-16336D01*
G01X253046Y-16411D01*
G01X253021Y-16485D01*
G01X252995Y-16559D01*
G01X252967Y-16633D01*
G01X252938Y-16706D01*
G01X252908Y-16778D01*
G01X252877Y-16850D01*
G01X252844Y-16922D01*
G01X252811Y-16993D01*
G01X252776Y-17063D01*
G01X252739Y-17133D01*
G01X252702Y-17202D01*
G01X252663Y-17270D01*
G01X252623Y-17338D01*
G01X252582Y-17405D01*
G01X252540Y-17471D01*
G01X252497Y-17536D01*
G01X252452Y-17601D01*
G01X252407Y-17665D01*
G01X252360Y-17728D01*
G01X252312Y-17790D01*
G01X252263Y-17852D01*
G01X252213Y-17913D01*
G01X252162Y-17972D01*
G01X252110Y-18031D01*
G01X252057Y-18089D01*
G01X252003Y-18146D01*
G01X251948Y-18202D01*
G01X251892Y-18257D01*
G01X251835Y-18311D01*
G01X251777Y-18364D01*
G01X251718Y-18416D01*
G01X251659Y-18467D01*
G01X251598Y-18517D01*
G01X251536Y-18566D01*
G01X251474Y-18614D01*
G01X251411Y-18661D01*
G01X251347Y-18706D01*
G01X251282Y-18751D01*
G01X251217Y-18794D01*
G01X251151Y-18836D01*
G01X251084Y-18877D01*
G01X251016Y-18917D01*
G01X250948Y-18956D01*
G01X250879Y-18993D01*
G01X250809Y-19030D01*
G01X250739Y-19065D01*
G01X250668Y-19098D01*
G01X250596Y-19131D01*
G01X250524Y-19162D01*
G01X250452Y-19192D01*
G01X250379Y-19221D01*
G01X250305Y-19249D01*
G01X250231Y-19275D01*
G01X250157Y-19300D01*
G01X250082Y-19323D01*
G01X250006Y-19346D01*
G01X249931Y-19367D01*
G01X249855Y-19386D01*
G01X249778Y-19405D01*
G01X249702Y-19422D01*
G01X249625Y-19437D01*
G01X249547Y-19452D01*
G01X249470Y-19465D01*
G01X249392Y-19476D01*
G01X249314Y-19486D01*
G01X249236Y-19495D01*
G01X249158Y-19503D01*
G01X249080Y-19509D01*
G01X249002Y-19514D01*
G01X248923Y-19517D01*
G01X248845Y-19519D01*
G01X248766Y-19520D01*
G01X248687Y-19519D01*
G01X248609Y-19517D01*
G01X248530Y-19514D01*
G01X248452Y-19509D01*
G01X248374Y-19503D01*
G01X248296Y-19495D01*
G01X248218Y-19486D01*
G01X248140Y-19476D01*
G01X248062Y-19465D01*
G01X247985Y-19452D01*
G01X247907Y-19437D01*
G01X247830Y-19422D01*
G01X247754Y-19405D01*
G01X247677Y-19386D01*
G01X247601Y-19367D01*
G01X247526Y-19346D01*
G01X247450Y-19323D01*
G01X247375Y-19300D01*
G01X247301Y-19275D01*
G01X247227Y-19249D01*
G01X247153Y-19221D01*
G01X247080Y-19192D01*
G01X247008Y-19162D01*
G01X246936Y-19131D01*
G01X246864Y-19098D01*
G01X246793Y-19065D01*
G01X246723Y-19030D01*
G01X246653Y-18993D01*
G01X246584Y-18956D01*
G01X246516Y-18917D01*
G01X246448Y-18877D01*
G01X246381Y-18836D01*
G01X246315Y-18794D01*
G01X246250Y-18751D01*
G01X246185Y-18706D01*
G01X246121Y-18661D01*
G01X246058Y-18614D01*
G01X245996Y-18566D01*
G01X245934Y-18517D01*
G01X245873Y-18467D01*
G01X245814Y-18416D01*
G01X245755Y-18364D01*
G01X245697Y-18311D01*
G01X245640Y-18257D01*
G01X245584Y-18202D01*
G01X245529Y-18146D01*
G01X245475Y-18089D01*
G01X245422Y-18031D01*
G01X245370Y-17972D01*
G01X245319Y-17913D01*
G01X245269Y-17852D01*
G01X245220Y-17790D01*
G01X245172Y-17728D01*
G01X245125Y-17665D01*
G01X245080Y-17601D01*
G01X245035Y-17536D01*
G01X244992Y-17471D01*
G01X244950Y-17405D01*
G01X244909Y-17338D01*
G01X244869Y-17270D01*
G01X244830Y-17202D01*
G01X244793Y-17133D01*
G01X244756Y-17063D01*
G01X244721Y-16993D01*
G01X244688Y-16922D01*
G01X244655Y-16850D01*
G01X244624Y-16778D01*
G01X244594Y-16706D01*
G01X244565Y-16633D01*
G01X244537Y-16559D01*
G01X244511Y-16485D01*
G01X244486Y-16411D01*
G01X244463Y-16336D01*
G01X244440Y-16260D01*
G01X244419Y-16185D01*
G01X244400Y-16109D01*
G01X244381Y-16032D01*
G01X244364Y-15956D01*
G01X244349Y-15879D01*
G01X244334Y-15801D01*
G01X244321Y-15724D01*
G01X244310Y-15646D01*
G01X244300Y-15568D01*
G01X244291Y-15490D01*
G01X244283Y-15412D01*
G01X244277Y-15334D01*
G01X244272Y-15256D01*
G01X244269Y-15177D01*
G01X244267Y-15099D01*
G01X244266Y-15020D01*
G01X244267Y-14941D01*
G01X244269Y-14863D01*
G01X244272Y-14784D01*
G01X244277Y-14706D01*
G01X244283Y-14628D01*
G01X244291Y-14550D01*
G01X244300Y-14472D01*
G01X244310Y-14394D01*
G01X244321Y-14316D01*
G01X244334Y-14239D01*
G01X244349Y-14161D01*
G01X244364Y-14084D01*
G01X244381Y-14008D01*
G01X244400Y-13931D01*
G01X244419Y-13855D01*
G01X244440Y-13780D01*
G01X244463Y-13704D01*
G01X244486Y-13629D01*
G01X244511Y-13555D01*
G01X244537Y-13481D01*
G01X244565Y-13407D01*
G01X244594Y-13334D01*
G01X244624Y-13262D01*
G01X244655Y-13190D01*
G01X244688Y-13118D01*
G01X244721Y-13047D01*
G01X244756Y-12977D01*
G01X244793Y-12907D01*
G01X244830Y-12838D01*
G01X244869Y-12770D01*
G01X244909Y-12702D01*
G01X244950Y-12635D01*
G01X244992Y-12569D01*
G01X245035Y-12504D01*
G01X245080Y-12439D01*
G01X245125Y-12375D01*
G01X245172Y-12312D01*
G01X245220Y-12250D01*
G01X245269Y-12188D01*
G01X245319Y-12127D01*
G01X245370Y-12068D01*
G01X245422Y-12009D01*
G01X245475Y-11951D01*
G01X245529Y-11894D01*
G01X245584Y-11838D01*
G01X245640Y-11783D01*
G01X245697Y-11729D01*
G01X245755Y-11676D01*
G01X245814Y-11624D01*
G01X245873Y-11573D01*
G01X245934Y-11523D01*
G01X245996Y-11474D01*
G01X246058Y-11426D01*
G01X246121Y-11379D01*
G01X246185Y-11334D01*
G01X246250Y-11289D01*
G01X246315Y-11246D01*
G01X246381Y-11204D01*
G01X246448Y-11163D01*
G01X246516Y-11123D01*
G01X246584Y-11084D01*
G01X246653Y-11047D01*
G01X246723Y-11010D01*
G01X246793Y-10975D01*
G01X246864Y-10942D01*
G01X246936Y-10909D01*
G01X247008Y-10878D01*
G01X247080Y-10848D01*
G01X247153Y-10819D01*
G01X247227Y-10791D01*
G01X247301Y-10765D01*
G01X247375Y-10740D01*
G01X247450Y-10717D01*
G01X247526Y-10694D01*
G01X247601Y-10673D01*
G01X247677Y-10654D01*
G01X247754Y-10635D01*
G01X247830Y-10618D01*
G01X247907Y-10603D01*
G01X247985Y-10588D01*
G01X248062Y-10575D01*
G01X248140Y-10564D01*
G01X248218Y-10554D01*
G01X248296Y-10545D01*
G01X248374Y-10537D01*
G01X248452Y-10531D01*
G01X248530Y-10526D01*
G01X248609Y-10523D01*
G01X248687Y-10521D01*
G01X248766Y-10520D01*
G01Y-2233D01*
G01X246890D01*
G01Y-8797D01*
G01X246781Y-8831D01*
G01X246673Y-8866D01*
G01X246566Y-8904D01*
G01X246459Y-8943D01*
G01X246354Y-8985D01*
G01X246248Y-9028D01*
G01X246144Y-9073D01*
G01X246040Y-9120D01*
G01X245937Y-9168D01*
G01X245835Y-9219D01*
G01X245734Y-9271D01*
G01X245634Y-9325D01*
G01X245535Y-9380D01*
G01X245437Y-9438D01*
G01X245340Y-9497D01*
G01X245244Y-9557D01*
G01X245149Y-9620D01*
G01X245055Y-9684D01*
G01X244962Y-9750D01*
G01X244870Y-9817D01*
G01X244780Y-9886D01*
G01X244691Y-9957D01*
G01X244603Y-10029D01*
G01X244516Y-10102D01*
G01X244431Y-10177D01*
G01X244347Y-10254D01*
G01X244264Y-10332D01*
G01X244183Y-10411D01*
G01X244103Y-10492D01*
G01X244024Y-10575D01*
G01X243947Y-10658D01*
G01X243872Y-10743D01*
G01X243798Y-10829D01*
G01X243725Y-10917D01*
G01X243654Y-11006D01*
G01X243585Y-11096D01*
G01X243517Y-11187D01*
G01X243451Y-11279D01*
G01X243386Y-11373D01*
G01X243323Y-11468D01*
G01X243262Y-11563D01*
G01X243202Y-11660D01*
G01X243144Y-11758D01*
G01X243088Y-11857D01*
G01X243033Y-11957D01*
G01X242981Y-12057D01*
G01X242930Y-12159D01*
G01X242881Y-12262D01*
G01X242833Y-12365D01*
G01X242788Y-12469D01*
G01X242744Y-12574D01*
G01X242702Y-12680D01*
G01X242662Y-12786D01*
G01X242624Y-12893D01*
G01X242588Y-13001D01*
G01X242553Y-13110D01*
G01X242521Y-13219D01*
G01X242490Y-13328D01*
G01X242462Y-13438D01*
G01X242435Y-13549D01*
G01X242410Y-13660D01*
G01X242387Y-13771D01*
G01X242366Y-13883D01*
G01X242347Y-13995D01*
G01X242331Y-14107D01*
G01X242316Y-14220D01*
G01X242303Y-14333D01*
G01X242292Y-14446D01*
G01X242282Y-14560D01*
G01X242275Y-14673D01*
G01X242270Y-14787D01*
G01X242267Y-14900D01*
G01X242266Y-15014D01*
G01X242267Y-15128D01*
G01X242270Y-15241D01*
G01X242275Y-15355D01*
G01X242282Y-15468D01*
G01X242290Y-15582D01*
G01X242301Y-15695D01*
G01X242314Y-15808D01*
G01X242329Y-15921D01*
G01X242346Y-16033D01*
G01X242364Y-16145D01*
G01X242385Y-16257D01*
G01X242407Y-16369D01*
G01X242432Y-16480D01*
G01X242459Y-16590D01*
G01X242487Y-16700D01*
G01X242517Y-16810D01*
G01X242550Y-16919D01*
G01X242584Y-17027D01*
G01X242620Y-17135D01*
G01X242658Y-17242D01*
G01X242698Y-17349D01*
G01X242739Y-17455D01*
G01X242783Y-17560D01*
G01X242828Y-17664D01*
G01X242875Y-17768D01*
G01X242924Y-17870D01*
G01X242975Y-17972D01*
G01X243027Y-18073D01*
G01X243082Y-18173D01*
G01X243138Y-18272D01*
G01X243195Y-18370D01*
G01X243255Y-18467D01*
G01X243316Y-18562D01*
G01X243379Y-18657D01*
G01X243443Y-18751D01*
G01X243509Y-18843D01*
G01X243577Y-18935D01*
G01X243646Y-19025D01*
G01X243717Y-19114D01*
G01X243789Y-19202D01*
G01X243863Y-19288D01*
G01X243939Y-19373D01*
G01X244016Y-19457D01*
G01X244094Y-19539D01*
G01X244174Y-19620D01*
G01X244255Y-19700D01*
G01X244337Y-19778D01*
G01X244421Y-19855D01*
G01X244507Y-19930D01*
G01X244593Y-20004D01*
G01X244681Y-20076D01*
G01X244770Y-20147D01*
G01X244860Y-20216D01*
G01X244952Y-20284D01*
G01X245044Y-20349D01*
G01X245138Y-20414D01*
G01X245233Y-20476D01*
G01X245329Y-20537D01*
G01X245426Y-20597D01*
G01X245524Y-20654D01*
G01X245623Y-20710D01*
G01X245723Y-20764D01*
G01X245824Y-20816D01*
G01X245926Y-20867D01*
G01X246029Y-20916D01*
G01X246132Y-20963D01*
G01X246237Y-21008D01*
G01X246342Y-21051D01*
G01X246448Y-21093D01*
G01X246554Y-21132D01*
G01X246661Y-21170D01*
G01X246769Y-21206D01*
G01X246878Y-21240D01*
G01X246987Y-21272D01*
G01X247097Y-21302D01*
G01X247207Y-21331D01*
G01X247317Y-21357D01*
G01X247428Y-21381D01*
G01X247540Y-21404D01*
G01X247652Y-21424D01*
G01X247764Y-21443D01*
G01X247876Y-21459D01*
G01X247989Y-21474D01*
G01X248102Y-21486D01*
G01X248215Y-21497D01*
G01X248329Y-21506D01*
G01X248442Y-21512D01*
G01X248556Y-21517D01*
G01X248670Y-21520D01*
G01X248783D01*
G01X248897Y-21519D01*
G01X249011Y-21516D01*
G01X249124Y-21510D01*
G01X249238Y-21503D01*
G01X249351Y-21494D01*
G01X249464Y-21483D01*
G01X249577Y-21470D01*
G01X249690Y-21454D01*
G01X249802Y-21437D01*
G01X249914Y-21418D01*
G01X250026Y-21397D01*
G01X250137Y-21374D01*
G01X250248Y-21349D01*
G01X250359Y-21322D01*
G01X250469Y-21293D01*
G01X250578Y-21263D01*
G01X250687Y-21230D01*
G01X250796Y-21195D01*
G01X250903Y-21159D01*
G01X251010Y-21121D01*
G01X251117Y-21080D01*
G01X251222Y-21038D01*
G01X251327Y-20994D01*
G01X251431Y-20949D01*
G01X251535Y-20901D01*
G01X251637Y-20852D01*
G01X251739Y-20801D01*
G01X251839Y-20748D01*
G01X251939Y-20693D01*
G01X252038Y-20637D01*
G01X252136Y-20579D01*
G01X252232Y-20519D01*
G01X252328Y-20458D01*
G01X252423Y-20394D01*
G01X252516Y-20330D01*
G01X252608Y-20263D01*
G01X252699Y-20195D01*
G01X252789Y-20126D01*
G01X252878Y-20054D01*
G01X252966Y-19982D01*
G01X253052Y-19907D01*
G01X253136Y-19832D01*
G01X253220Y-19755D01*
G01X253302Y-19676D01*
G01X253383Y-19596D01*
G01X253462Y-19514D01*
G01X253540Y-19432D01*
G01X253617Y-19347D01*
G01X253692Y-19262D01*
G01X253765Y-19175D01*
G01X253837Y-19087D01*
G01X253907Y-18998D01*
G01X253976Y-18907D01*
G01X254043Y-18815D01*
G01X254109Y-18723D01*
G01X254173Y-18628D01*
G01X254235Y-18533D01*
G01X254296Y-18437D01*
G01X254355Y-18340D01*
G01X254412Y-18242D01*
G01X254467Y-18142D01*
G01X254521Y-18042D01*
G01X254573Y-17941D01*
G01X254623Y-17839D01*
G01X254672Y-17736D01*
G01X254718Y-17632D01*
G01X254763Y-17528D01*
G01X254806Y-17423D01*
G01X254847Y-17317D01*
G01X254886Y-17210D01*
G01X254924Y-17102D01*
G01X254959Y-16994D01*
G01X254993Y-16886D01*
G01X255024Y-16777D01*
G01X255054Y-16667D01*
G01X255082Y-16557D01*
G01X255108Y-16446D01*
G01X255132Y-16335D01*
G01X255154Y-16223D01*
G01X255174Y-16111D01*
G01X255192Y-15999D01*
G01X255208Y-15886D01*
G01X255222Y-15774D01*
G01X255235Y-15661D01*
G01X255245Y-15547D01*
G01X255253Y-15434D01*
G01X255259Y-15320D01*
G01X255264Y-15207D01*
G01X255266Y-15093D01*
G01Y-14979D01*
G01X255264Y-14866D01*
G01X255261Y-14752D01*
G01X255255Y-14638D01*
G01X255247Y-14525D01*
G01X255238Y-14412D01*
G01X255226Y-14299D01*
G01X255212Y-14186D01*
G01X255197Y-14073D01*
G01X255179Y-13961D01*
G01X255160Y-13849D01*
G01X255138Y-13737D01*
G01X255115Y-13626D01*
G01X255090Y-13515D01*
G01X255062Y-13404D01*
G01X255033Y-13295D01*
G01X255002Y-13185D01*
G01X254969Y-13076D01*
G01X254934Y-12968D01*
G01X254897Y-12861D01*
G01X254858Y-12754D01*
G01X254818Y-12647D01*
G01X254775Y-12542D01*
G01X254731Y-12437D01*
G01X254685Y-12333D01*
G01X254637Y-12230D01*
G01X254587Y-12128D01*
G01X254536Y-12026D01*
G01X254483Y-11926D01*
G01X254428Y-11826D01*
G01X254371Y-11728D01*
G01X254312Y-11630D01*
G01X254252Y-11534D01*
G01X254191Y-11438D01*
G01X254127Y-11344D01*
G01X254062Y-11251D01*
G01X253995Y-11159D01*
G01X253927Y-11068D01*
G01X253857Y-10978D01*
G01X253785Y-10890D01*
G01X253712Y-10803D01*
G01X253638Y-10717D01*
G01X253562Y-10632D01*
G01X253484Y-10549D01*
G01X253405Y-10467D01*
G01X253325Y-10387D01*
G01X253243Y-10308D01*
G01X253160Y-10230D01*
G01X253076Y-10154D01*
G01X252990Y-10079D01*
G01X252903Y-10006D01*
G01X252815Y-9935D01*
G01X252725Y-9865D01*
G01X252634Y-9796D01*
G01X252542Y-9729D01*
G01X252449Y-9664D01*
G01X252355Y-9600D01*
G01X252259Y-9538D01*
G01X252163Y-9478D01*
G01X252066Y-9420D01*
G01X251967Y-9363D01*
G01X251868Y-9308D01*
G01X251767Y-9254D01*
G01X251666Y-9203D01*
G01X251564Y-9153D01*
G01X251461Y-9105D01*
G01X251357Y-9058D01*
G01X251252Y-9014D01*
G01X251147Y-8971D01*
G01X251040Y-8931D01*
G01X250934Y-8892D01*
G01X250826Y-8855D01*
G01X250718Y-8820D01*
G01X250609Y-8787D01*
G01X250500Y-8755D01*
G01X250390Y-8726D01*
G37*
M02*

